<ttFont>
          <CharString index="0">
            36 394 hlineto
            240 -15 62 -170 -172 -14 -62 -240 vhcurveto
            -394 36 274 299 vlineto
            150 vmoveto
            -116 -299 116 vlineto
            191 9 47 141 140 9 -47 -191 vhcurveto
            return
          </CharString>
          <CharString index="1">
            rmoveto
            -107 callsubr
            return
          </CharString>
          <CharString index="2">
            rmoveto
            154 13 45 217 217 -13 47 -154 -153 -13 -47 -217 -217 13 -45 153 hvcurveto
            32 26 callsubr
            return
          </CharString>
          <CharString index="3">
            38 hlineto
            -201 688 rlineto
            -39 hlineto
            -200 -688 rlineto
            36 hlineto
            63 219 rlineto
            240 hlineto
            -117 405 rmoveto
            107 -371 rlineto
            -220 hlineto
            108 371 rlineto
            return
          </CharString>
          <CharString index="4">
            -123 0 -99 -128 -97 -19 23 148 vhcurveto
            315 -35 -320 vlineto
            -145 19 -53 124 96 28 41 45 12 vhcurveto
            4 hlineto
            return
          </CharString>
          <CharString index="5">
            14 -30 -29 14 -30 hhcurveto
            -43 -9 -25 -70 hvcurveto
            27 hlineto
            45 3 17 22 24 26 -13 -11 24 vhcurveto
            return
          </CharString>
          <CharString index="6">
            -127 -4 35 195 195 4 37 127 128 4 -37 -195 -195 -4 -35 -128 hvcurveto
            return
          </CharString>
          <CharString index="7">
            -89 callsubr
            -154 243 rmoveto
            93 26 -19 -171 hvcurveto
            -21 -251 vlineto
            183 13 28 119 vhcurveto
            return
          </CharString>
          <CharString index="8">
            rmoveto
            46 hlineto
            80 -57 callgsubr
            -27 vlineto
            -76 -108 -76 108 rlineto
            -27 -5 hlineto
            return
          </CharString>
          <CharString index="9">
            -3 -78 rlineto
            -4 hlineto
            76 -21 -56 10 -58 hhcurveto
            -132 -25 -49 -214 -214 25 -49 132 71 43 21 56 17 hvcurveto
            4 -8 hlineto
            -180 -17 -48 -132 -42 -54 2 3 -37 vhcurveto
            -33 vlineto
            -3 41 53 -1 43 hhcurveto
            17 223 -40 callgsubr
            112 64 39 -23 -65 16 hvcurveto
            8 -36 1 -47 -60 vvcurveto
            -62 -2 -47 -10 -41 vhcurveto
            -57 -14 -37 -24 -65 hhcurveto
            endchar
          </CharString>
          <CharString index="10">
            -145 -19 12 306 306 19 12 145 144 20 -12 -306 -306 -20 -12 -144 hvcurveto
            return
          </CharString>
          <CharString index="11">
            rmoveto
            -277 vlineto
            -7 -29 -53 -5 -37 hhcurveto
            -151 -18 47 271 308 34 10 158 33 56 -7 -9 41 hvcurveto
            32 vlineto
            11 -39 -64 7 -49 hhcurveto
            -171 -35 -49 -303 -306 37 -46 169 44 63 7 10 47 hvcurveto
            340 -168 -34 vlineto
            return
          </CharString>
          <CharString index="12">
            -27 hlineto
            -45 -4 -17 -22 -23 -24 11 12 -24 vhcurveto
            return
          </CharString>
          <CharString index="13">
            -32 callgsubr
            -41 -21 callsubr
            155 hmoveto
            5 vlineto
            -56 120 rlineto
            -42 -5 hlineto
            74 -120 rlineto
            return
          </CharString>
          <CharString index="14">
            rmoveto
            -4 103 -28 27 -56 15 rrcurveto
            4 vlineto
            61 16 32 43 123 vvcurveto
            123 -29 63 -122 vhcurveto
            -203 -688 36 298 164 hlineto
            109 2 -76 -70 4 hvcurveto
            7 -152 rlineto
            35 hlineto
            -158 332 rmoveto
            -163 322 165 hlineto
            111 6 -66 -95 -93 -17 -68 -102 hvcurveto
            return
          </CharString>
          <CharString index="15">
            312 34 -275 297 241 34 -241 289 275 34 -312 hlineto
            return
          </CharString>
          <CharString index="16">
            -92 callgsubr
            80 callgsubr
            return
          </CharString>
          <CharString index="17">
            rmoveto
            84 8 22 66 66 -8 23 -84 -83 -7 -23 -66 -66 7 -22 83 hvcurveto
            28 vmoveto
            -54 -3 13 47 47 3 14 54 55 4 -14 -47 -47 -4 -13 -55 hvcurveto
            return
          </CharString>
          <CharString index="18">
            -88 callgsubr
            hlineto
            return
          </CharString>
          <CharString index="19">
            rmoveto
            34 vlineto
            -6 -26 -42 -4 -31 hhcurveto
            -151 -16 32 286 286 16 32 151 29 40 -4 -6 28 hvcurveto
            32 vlineto
            7 -26 -44 5 -35 hhcurveto
            -167 -28 -45 -307 -311 28 -41 167 35 44 4 6 28 hvcurveto
            endchar
          </CharString>
          <CharString index="20">
            rmoveto
            42 61 -42 hlineto
            173 -61 rmoveto
            42 61 -42 hlineto
            return
          </CharString>
          <CharString index="21">
            36 281 hlineto
            187 407 rlineto
            -38 hlineto
            -163 -359 rlineto
            -5 hlineto
            -163 359 rlineto
            -39 hlineto
            185 -407 rlineto
            return
          </CharString>
          <CharString index="22">
            133 rlineto
            return
          </CharString>
          <CharString index="23">
            39 hlineto
            130 510 rlineto
            -36 hlineto
            -109 -450 rlineto
            -4 hlineto
            -103 450 rlineto
            -42 hlineto
            -102 -450 rlineto
            -4 hlineto
            -110 450 rlineto
            -38 hlineto
            130 -510 rlineto
            39 hlineto
            103 446 rlineto
            5 hlineto
            endchar
          </CharString>
          <CharString index="24">
            291 32 -249 hlineto
            248 450 rlineto
            28 -282 -32 240 vlineto
            -248 -450 rlineto
            return
          </CharString>
          <CharString index="25">
            rmoveto
            24 hlineto
            74 120 rlineto
            5 -42 92 callgsubr
            131 -5 rmoveto
            24 hlineto
            73 120 rlineto
            5 -41 92 callgsubr
            return
          </CharString>
          <CharString index="26">
            39 hlineto
            142 688 rlineto
            -36 hlineto
            -123 -614 rlineto
            -5 hlineto
            -136 614 rlineto
            -42 hlineto
            -135 -614 rlineto
            -6 hlineto
            -122 614 rlineto
            -38 hlineto
            142 -688 rlineto
            39 hlineto
            return
          </CharString>
          <CharString index="27">
            -14 -8 -66 callgsubr
            return
          </CharString>
          <CharString index="28">
            77 21 -21 274 34 354 34 return
          </CharString>
          <CharString index="29">
            rmoveto
            201 -9 57 -142 -86 -43 -19 -49 -21 vhcurveto
            53 -19 -41 15 -81 hhcurveto
            -55 -50 -6 -6 -31 hvcurveto
            -33 vlineto
            6 31 58 7 37 hhcurveto
            112 19 -16 -146 hvcurveto
            -45 -158 vlineto
            -97 -28 -33 -108 -122 46 -24 98 60 67 8 86 26 hvcurveto
            -72 19 44 -22 93 hhcurveto
            50 57 6 7 29 hvcurveto
            33 vlineto
            -8 -35 -55 -6 -42 hhcurveto
            -126 -13 43 180 hvcurveto
            286 hlineto
            -153 239 rmoveto
            92 26 -19 -171 hvcurveto
            -17 -251 vlineto
            180 13 27 120 vhcurveto
            -168 -276 rmoveto
            -50 -4 -36 -12 -37 vhcurveto
            -59 -20 -52 -4 -51 hhcurveto
            -88 -21 21 93 95 20 14 78 hvcurveto
            150 hlineto
            endchar
          </CharString>
          <CharString index="30">
            -40 callgsubr
            108 69 37 -24 -62 16 hvcurveto
            8 -36 2 -47 -48 vvcurveto
            -74 -1 -47 -11 -48 vhcurveto
            -53 -13 -39 -23 -64 hhcurveto
            return
          </CharString>
          <CharString index="31">
            vlineto
            -123 0 -99 -128 -97 -19 23 148 vhcurveto
            315 -35 -320 vlineto
            return
          </CharString>
          <CharString index="32">
            50 21 -65 callgsubr
            return
          </CharString>
          <CharString index="33">
            -17 callgsubr
            vhcurveto
            150 -41 hlineto
            -50 -4 -36 -13 -40 vhcurveto
            return
          </CharString>
          <CharString index="34">
            123 0 99 128 98 18 -23 -148 vhcurveto
            return
          </CharString>
          <CharString index="35">
            rmoveto
            -34 vlineto
            124 3 6 11 223 vvcurveto
            451 -36 -455 vlineto
            -192 -1 -3 -93 -4 vhcurveto
            endchar
          </CharString>
          <CharString index="36">
            6 -22 -27 2 -34 hhcurveto
            -153 -13 -47 -217 -217 13 -45 153 154 13 45 217 hvcurveto
            return
          </CharString>
          <CharString index="37">
            35 259 hlineto
            142 24 81 115 vhcurveto
            36 vlineto
            -67 -54 -19 -91 -18 hvcurveto
            -4 hlineto
            return
          </CharString>
          <CharString index="38">
            rmoveto
            39 80 rlineto
            -36 hlineto
            -30 -62 rlineto
            11 -24 -32 4 -45 hhcurveto
            -153 -13 -47 -217 -127 4 -68 34 -34 hvcurveto
            -38 -80 rlineto
            36 hlineto
            29 61 rlineto
            -10 24 33 -4 44 hhcurveto
            154 13 45 217 127 -4 69 -35 35 hvcurveto
            -259 -231 rmoveto
            195 4 37 127 40 28 -3 -10 19 vhcurveto
            -199 -415 rlineto
            -19 31 0 58 107 vvcurveto
            131 -230 rmoveto
            -39 -28 2 10 -20 hvcurveto
            199 415 rlineto
            20 -32 0 -60 -105 vvcurveto
            -195 -4 -35 -128 vhcurveto
            endchar
          </CharString>
          <CharString index="39">
            14 -30 -29 14 -30 hhcurveto
            -43 -9 -25 -70 hvcurveto
            27 hlineto
            45 3 17 22 vhcurveto
            return
          </CharString>
          <CharString index="40">
            -12 0 34 297 -24 callgsubr
            return
          </CharString>
          <CharString index="41">
            -122 46 -24 98 vhcurveto
            32 vmoveto
            -88 -21 21 93 hvcurveto
            return
          </CharString>
          <CharString index="42">
            rmoveto
            -36 hlineto
            -32 -70 rlineto
            18 -30 -42 5 -60 hhcurveto
            -183 -17 -45 -307 -171 6 -90 36 -46 hvcurveto
            -42 -92 rlineto
            36 hlineto
            32 70 rlineto
            -18 29 42 -5 61 hhcurveto
            182 18 45 307 171 -6 90 -36 46 hvcurveto
            -322 -307 rmoveto
            306 19 12 145 57 37 -1 -17 24 vhcurveto
            -259 -571 rlineto
            -20 42 -3 79 150 vvcurveto
            328 hmoveto
            -306 -20 -12 -144 -57 -37 1 18 -25 vhcurveto
            260 570 rlineto
            20 -42 3 -79 -150 vvcurveto
            endchar
          </CharString>
          <CharString index="43">
            36 vstem
            228 -8 -100 callgsubr
            return
          </CharString>
          <CharString index="44">
            rmoveto
            620 111 vlineto
            155 19 67 callsubr
            -18 -12 -156 hvcurveto
            return
          </CharString>
          <CharString index="45">
            35 478 99 32 -99 121 hlineto
            67 22 15 77 vhcurveto
            30 vlineto
            -87 -47 -12 -106 hvcurveto
            -115 -79 -32 79 vlineto
            return
          </CharString>
          <CharString index="46">
            -16 -5 rlineto
            -26 -7 80 callsubr
            return
          </CharString>
          <CharString index="47">
            -21 vlineto
            59 14 19 72 hvcurveto
            75 -47 -65 20 -17 vlineto
            105 callsubr
            return
          </CharString>
          <CharString index="48">
            rmoveto
            27 510 -35 -264 hlineto
            return
          </CharString>
          <CharString index="49">
            rmoveto
            184 36 -184 hlineto
            return
          </CharString>
          <CharString index="50">
            -99 callgsubr
            -144 return
          </CharString>
          <CharString index="51">
            -34 callsubr
            -80 -80 callgsubr
            return
          </CharString>
          <CharString index="52">
            rmoveto
            -68 callgsubr
            hintmask 10111100
            -49 callsubr
            hintmask 11011100
            -47 callgsubr
          </CharString>
          <CharString index="53">
            3 -78 rlineto
            28 743 -35 -302 -15 callsubr
            hvcurveto
            return
          </CharString>
          <CharString index="54">
            -8 -45 callsubr
            return
          </CharString>
          <CharString index="55">
            rmoveto
            -78 callgsubr
            return
          </CharString>
          <CharString index="56">
            rmoveto
            63 32 15 46 16 hvcurveto
            9 29 1 45 62 vvcurveto
            61 -1 41 -7 26 vhcurveto
            51 -13 -30 10 -64 hhcurveto
            -89 -16 -28 -95 -93 27 -12 74 57 17 14 14 10 hvcurveto
            2 hlineto
            -132 -9 -24 -85 -22 -32 3 4 -24 vhcurveto
            -29 vlineto
            -5 25 35 -3 24 hhcurveto
            10 189 rmoveto
            -65 -11 5 80 73 14 8 62 61 16 -11 -87 -52 -6 -16 -71 hvcurveto
            endchar
          </CharString>
          <CharString index="57">
            923 -3 callgsubr
            return
          </CharString>
          <CharString index="58">
            97 callgsubr
            -510 35 264 hlineto
            return
          </CharString>
          <CharString index="59">
            -27 callsubr
            24 callsubr
            hvcurveto
            -154 hlineto
            36 -654 -63 callsubr
            return
          </CharString>
          <CharString index="60">
            -62 callgsubr
            63 11 -6 return
          </CharString>
          <CharString index="61">
            33 18 33 hstemhm
            return
          </CharString>
          <CharString index="62">
            32 -3 -42 callgsubr
            return
          </CharString>
          <CharString index="63">
            -30 callgsubr
            34 return
          </CharString>
          <CharString index="64">
            rmoveto
            28 0 16 4 12 vhcurveto
            3 9 6 6 10 6 31 15 32 18 29 15 rrcurveto
            38 20 14 20 62 vvcurveto
            87 -43 7 -55 -33 -40 -4 -5 -23 vhcurveto
            -28 vlineto
            4 28 38 2 22 hhcurveto
            58 15 -10 -58 -38 -6 -16 -29 -16 hvcurveto
            -28 -15 -30 -15 -26 -14 rrcurveto
            -48 -26 0 -17 -85 vvcurveto
            -41 200 31 -167 vlineto
            endchar
          </CharString>
          <CharString index="65">
            36 vstem
            430 171 -93 callsubr
            return
          </CharString>
          <CharString index="66">
            210 vmoveto
            -63 -15 14 58 58 13 16 65 64 13 -16 -58 -58 -14 -14 -63 hvcurveto
            return
          </CharString>
          <CharString index="67">
            -8 -11 callgsubr
            return
          </CharString>
          <CharString index="68">
            rmoveto
            41 61 -41 hlineto
            return
          </CharString>
          <CharString index="69">
            16 -53 callsubr
            116 callsubr
            hintmask 10111000
            352 510 rmoveto
            -264 vlineto
            -123 0 -99 -128 -98 -18 23 148 vhcurveto
            315 -35 -700 35 219 5 vlineto
            -25 21 34 -12 50 hhcurveto
            94 28 41 45 12 hvcurveto
            4 hlineto
            hintmask 01111000
            4 -78 rlineto
            27 510 hlineto
            endchar
          </CharString>
          <CharString index="70">
            -27 callsubr
            24 callsubr
            hvcurveto
            -154 hlineto
            453 -688 rmoveto
            -79 callgsubr
            -417 2 -63 callsubr
            endchar
          </CharString>
          <CharString index="71">
            46 rmoveto
            32 50 rlineto
            -83 52 -55 91 105 vvcurveto
            104 56 92 82 51 vhcurveto
            -32 51 rlineto
            -99 -62 -67 -111 -125 vvcurveto
            -126 67 -110 99 -62 vhcurveto
            return
          </CharString>
          <CharString index="72">
            -87 rmoveto
            77 callgsubr
            hvcurveto
            -88 callgsubr
            13 hlineto
            204 -9 58 -142 vhcurveto
            116 -243 rmoveto
            -251 hlineto
            183 13 28 119 93 26 -19 -171 vhcurveto
            endchar
          </CharString>
          <CharString index="73">
            76 -108 rlineto
            27 5 hlineto
            -80 -85 callsubr
            -46 hlineto
            return
          </CharString>
          <CharString index="74">
            4 -78 rlineto
            27 482 12 hlineto
            -9 callsubr
            vlineto
            return
          </CharString>
          <CharString index="75">
            -57 -80 callgsubr
            return
          </CharString>
          <CharString index="76">
            36 vstem
            444 hmoveto
            -90 callgsubr
            return
          </CharString>
          <CharString index="77">
            27 211 27 return
          </CharString>
          <CharString index="78">
            82 -44 callsubr
            return
          </CharString>
          <CharString index="79">
            49 2 10 19 12 vhcurveto
            81 47 rlineto
            38 22 15 21 61 vvcurveto
            86 -39 8 -52 -25 -36 -3 -5 -30 vhcurveto
            -31 vlineto
            5 38 32 3 18 hhcurveto
            48 14 -14 -54 -36 -6 -18 -26 -16 hvcurveto
            -24 -13 -30 -18 -29 -17 rrcurveto
            -39 -24 -1 -16 -81 vvcurveto
            -39 187 return
          </CharString>
          <CharString index="80">
            154 hlineto
            185 18 44 300 return
          </CharString>
          <CharString index="81">
            145 -19 53 -124 return
          </CharString>
          <CharString index="82">
            32 vlineto
            -1 -9 -4 0 -4 hhcurveto
            return
          </CharString>
          <CharString index="83">
            888 -20 callsubr
            return
          </CharString>
          <CharString index="84">
            rmoveto
            103 callgsubr
            92 20 32 87 70 -12 36 -88 -24 -26 -2 -3 -15 hvcurveto
            131 144 30 -175 -193 vlineto
            5 28 29 2 16 hhcurveto
            75 15 -10 -71 -64 -14 -20 -69 -20 -35 3 3 -29 hvcurveto
            endchar
          </CharString>
          <CharString index="85">
            -1 -31 callgsubr
            return
          </CharString>
          <CharString index="86">
            -5 hlineto
            73 -120 rlineto
            return
          </CharString>
          <CharString index="87">
            rmoveto
            -95 callsubr
            hintmask 11011110
            -102 callsubr
            hintmask 11111110
            -93 callgsubr
            hintmask 11011110
            return
          </CharString>
          <CharString index="88">
            rmoveto
            -10 callgsubr
          </CharString>
          <CharString index="89">
            -263 30 callsubr
            return
          </CharString>
          <CharString index="90">
            -23 21 -21 202 34 452 -20 return
          </CharString>
          <CharString index="91">
            116 -40 -103 callgsubr
            return
          </CharString>
          <CharString index="92">
            -4 hlineto
            56 -17 -43 21 -71 hhcurveto
            -132 -25 -49 -214 return
          </CharString>
          <CharString index="93">
            -21 219 34 return
          </CharString>
          <CharString index="94">
            24 -23 -36 12 -50 hhcurveto
            -157 -9 -47 -217 -213 9 -49 157 hvcurveto
            32 vmoveto
            -131 0 42 188 195 0 37 131 132 0 -77 -155 -188 0 -42 -132 hvcurveto
            endchar
          </CharString>
          <CharString index="95">
            rmoveto
            24 hlineto
            75 133 rlineto
            5 -42 vlineto
            -57 -133 rlineto
            -169 -143 15 callgsubr
          </CharString>
          <CharString index="96">
            rmoveto
            -21 callgsubr
            return
          </CharString>
          <CharString index="97">
            -228 21 80 65 return
          </CharString>
          <CharString index="98">
            63 15 19 74 hvcurveto
            33 return
          </CharString>
          <CharString index="99">
            36 vstem
            81 hmoveto
            -48 callsubr
            return
          </CharString>
          <CharString index="100">
            -1 123 callgsubr
            263 35 vstem
            return
          </CharString>
          <CharString index="101">
            44 -8 23 callgsubr
            return
          </CharString>
          <CharString index="102">
            35 vstem
            352 hmoveto
            63 callgsubr
            -26 -43 -31 -10 vhcurveto
            -4 299 -35 -743 35 264 hlineto
            -73 callsubr
            return
          </CharString>
          <CharString index="103">
            235 34 -205 hlineto
            -61 297 rlineto
            232 34 -238 hlineto
            -59 289 rlineto
            331 34 -377 hlineto
            -261 -688 rlineto
            37 hlineto
            82 219 rlineto
            239 hlineto
            return
          </CharString>
          <CharString index="104">
            -20 hstem
            181 34 vstem
            198 -85 rmoveto
            112 255 -95 -43 rlineto
            356 vlineto
            95 -42 -112 255 -113 -255 96 42 rlineto
            -356 vlineto
            -96 43 rlineto
            return
          </CharString>
          <CharString index="105">
            -62 -39 rlineto
            -33 vlineto
            55 29 rlineto
            -45 -645 rmoveto
            1 callgsubr
            return
          </CharString>
          <CharString index="106">
            35 478 92 32 -92 148 -35 -148 -79 -32 79 hlineto
            return
          </CharString>
          <CharString index="107">
            212 -8 rmoveto
            58 56 10 76 21 hvcurveto
            4 hlineto
            return
          </CharString>
          <CharString index="108">
            61 -8 23 callsubr
            return
          </CharString>
          <CharString index="109">
            9 callgsubr
            hlineto
            return
          </CharString>
          <CharString index="110">
            hstem
            -213 43 callsubr
            return
          </CharString>
          <CharString index="111">
            -33 -118 hvcurveto
            hintmask 11110010
            -339 vmoveto
            -116 -36 26 125 132 29 22 123 123 28 -22 -132 -125 -36 -26 -115 hvcurveto
            endchar
          </CharString>
          <CharString index="112">
            vstem
            414 hmoveto
            40 hlineto
            -193 349 191 339 rlineto
            -39 hlineto
            -182 -322 rlineto
            -114 322 -36 -688 36 332 114 hlineto
            return
          </CharString>
          <CharString index="113">
            -618 -52 callsubr
            return
          </CharString>
          <CharString index="114">
            35 callsubr
            vstem
            return
          </CharString>
          <CharString index="115">
            rmoveto
            95 19 33 72 65 -19 16 -37 10 hvcurveto
            2 vlineto
            return
          </CharString>
          <CharString index="116">
            14 66 callgsubr
            -8 -20 return
          </CharString>
          <CharString index="117">
            hstem
            25 callsubr
            return
          </CharString>
          <CharString index="118">
            rmoveto
            32 51 rlineto
            -14 9 -10 16 20 vvcurveto
            20 10 16 15 9 vhcurveto
            -32 51 rlineto
            -32 -20 -21 -35 -41 vvcurveto
            -42 21 -34 31 -20 vhcurveto
            return
          </CharString>
          <CharString index="119">
            10 callsubr
            vstem
            return
          </CharString>
          <CharString index="120">
            hstem
            26 callgsubr
            vstem
            return
          </CharString>
          <CharString index="121">
            16 5 rlineto
            43 13 return
          </CharString>
          <CharString index="122">
            36 vstem
            160 750 rmoveto
            27 hlineto
            76 108 -56 callsubr
            return
          </CharString>
          <CharString index="123">
            3 -688 rmoveto
            38 147 hlineto
            80 -2 142 -3 146 vhcurveto
            -28 hlineto
            -3 -146 -2 -142 -80 vvcurveto
            endchar
          </CharString>
          <CharString index="124">
            32 195 55 callgsubr
            return
          </CharString>
          <CharString index="125">
            856 rmoveto
            -95 callsubr
            return
          </CharString>
          <CharString index="126">
            -36 -10 -19 -16 -65 vvcurveto
            -72 19 -33 95 vhcurveto
            return
          </CharString>
          <CharString index="127">
            -79 callsubr
            51 28 return
          </CharString>
          <CharString index="128">
            241 0 74 540 74 0 -20 return
          </CharString>
          <CharString index="129">
            510 -20 115 138 return
          </CharString>
          <CharString index="130">
            134 callsubr
            304 34 return
          </CharString>
          <CharString index="131">
            300 -18 44 -185 return
          </CharString>
          <CharString index="132">
            75 108 callgsubr
            return
          </CharString>
          <CharString index="133">
            vmoveto
            -101 callsubr
            return
          </CharString>
          <CharString index="134">
            96 callgsubr
            0 138 71 callsubr
            hintmask 10110111
            return
          </CharString>
          <CharString index="135">
            -47 74 callgsubr
            45 352 vstem
            397 hmoveto
            696 vlineto
            -207 -145 -143 -205 return
          </CharString>
          <CharString index="136">
            rmoveto
            32 hlineto
            75 1 38 71 70 1 -38 -75 vhcurveto
            32 hlineto
            82 0 59 -103 -103 -1 -59 -82 vhcurveto
            endchar
          </CharString>
          <CharString index="137">
            21 -42 callgsubr
            return
          </CharString>
          <CharString index="138">
            70 59 callsubr
            return
          </CharString>
          <CharString index="139">
            397 rmoveto
            92 7 29 120 120 -7 30 -92 -92 -7 -30 -120 -120 7 -29 92 hvcurveto
            return
          </CharString>
          <CharString index="140">
            -103 callgsubr
            46 return
          </CharString>
          <CharString index="141">
            hstem
            25 36 131 36 132 36 vstem
            return
          </CharString>
          <CharString index="142">
            hstem
            55 callsubr
            return
          </CharString>
          <CharString index="143">
            42 131 42 return
          </CharString>
          <CharString index="144">
            36 hstem
            75 36 57 184 58 36 vstem
            168 852 -58 callsubr
            242 return
          </CharString>
          <CharString index="145">
            rmoveto
            -42 -61 42 hlineto
            173 61 rmoveto
            -42 -61 42 hlineto
            return
          </CharString>
          <CharString index="146">
            71 callsubr
            hintmask 10111110
            return
          </CharString>
          <CharString index="147">
            82 -30 callgsubr
            26 -26 34 return
          </CharString>
          <CharString index="148">
            319 rmoveto
            32 369 -25 hlineto
            return
          </CharString>
          <CharString index="149">
            124 -4 68 -32 36 vhcurveto
            return
          </CharString>
          <CharString index="150">
            -44 callgsubr
            vstem
            return
          </CharString>
          <CharString index="151">
            32 219 32 return
          </CharString>
          <CharString index="152">
            vstem
            45 522 rmoveto
            46 65 -20 17 hlineto
            49 3 14 43 vhcurveto
            21 vlineto
            -59 -13 -19 -72 hvcurveto
            return
          </CharString>
          <CharString index="153">
            -136 268 36 hstem
            62 184 vstem
            62 268 -58 callsubr
            endchar
          </CharString>
          <CharString index="154">
            -8 rmoveto
            161 26 62 130 121 -31 27 -60 17 hvcurveto
            4 vlineto
            hintmask 11101100
            60 14 return
          </CharString>
          <CharString index="155">
            rmoveto
            37 vlineto
            -329 150 329 150 rlineto
            37 vlineto
            -360 -164 rlineto
            -46 vlineto
            return
          </CharString>
          <CharString index="156">
            -50 -9 6 131 131 9 6 50 52 6 -6 -131 -131 -8 -6 -50 hvcurveto
            return
          </CharString>
          <CharString index="157">
            rmoveto
            17 callgsubr
            -21 vlineto
            59 13 19 72 hvcurveto
            75 -46 vlineto
            endchar
          </CharString>
          <CharString index="158">
            36 654 166 34 -368 -34 166 hlineto
            return
          </CharString>
          <CharString index="159">
            83 callsubr
            70 35 87 28 71 31 27 35 return
          </CharString>
          <CharString index="160">
            72 callgsubr
            138 hstem
            return
          </CharString>
          <CharString index="161">
            hstemhm
            55 35 257 35 return
          </CharString>
          <CharString index="162">
            55 35 263 35 return
          </CharString>
          <CharString index="163">
            0 119 callgsubr
            return
          </CharString>
          <CharString index="164">
            vstem
            136 99 rmoveto
            29 hlineto
            -87 205 87 206 rlineto
            -29 hlineto
            -100 -206 rlineto
            return
          </CharString>
          <CharString index="165">
            4 hlineto
            -56 17 43 -21 71 hhcurveto
            132 25 49 214 214 -26 49 -131 return
          </CharString>
          <CharString index="166">
            35 244 35 return
          </CharString>
          <CharString index="167">
            -45 callgsubr
            87 138 65 callgsubr
            return
          </CharString>
          <CharString index="168">
            61 hstemhm
            70 41 -38 35 hintmask 00000000
            hintmask 11110000
            70 return
          </CharString>
          <CharString index="169">
            27 hstem
            75 36 113 28 71 31 56 36 return
          </CharString>
          <CharString index="170">
            rmoveto
            360 32 -360 hlineto
            return
          </CharString>
          <CharString index="171">
            32 37 28 71 31 -24 32 return
          </CharString>
          <CharString index="172">
            73 hmoveto
            35 743 -35 hlineto
            return
          </CharString>
          <CharString index="173">
            73 59 callsubr
            return
          </CharString>
          <CharString index="174">
            -12 -298 -298 return
          </CharString>
          <CharString index="175">
            77 -8 34 634 28 62 138 10 callsubr
            59 32 vstem
            return
          </CharString>
          <CharString index="176">
            -81 405 rmoveto
            74 -371 rlineto
            -220 hlineto
            141 371 rlineto
            endchar
          </CharString>
          <CharString index="177">
            125 hstem
            -250 228 vstem
            return
          </CharString>
          <CharString index="178">
            hstemhm
            56 callgsubr
            return
          </CharString>
          <CharString index="179">
            -21 604 84 0 -20 return
          </CharString>
          <CharString index="180">
            0 60 568 60 hstem
            return
          </CharString>
          <CharString index="181">
            -31 callgsubr
            87 return
          </CharString>
          <CharString index="182">
            30 78 -46 callsubr
            -240 -30 callsubr
            hintmask 00000000
            hintmask 11111000
            25 return
          </CharString>
          <CharString index="183">
            vstem
            253 -8 rmoveto
            148 26 50 168 168 -43 19 -133 return
          </CharString>
          <CharString index="184">
            46 5 23 hhcurveto
            137 26 -21 -142 -128 -25 -43 -123 -34 return
          </CharString>
          <CharString index="185">
            35 320 hlineto
            -26 callsubr
            return
          </CharString>
          <CharString index="186">
            hstem
            27 440 vstem
            return
          </CharString>
          <CharString index="187">
            -11 -7 -29 vvcurveto
            return
          </CharString>
          <CharString index="188">
            30 166 30 129 31 hstem
            37 33 155 33 vstem
            152 return
          </CharString>
          <CharString index="189">
            159 hlineto
            144 9 99 108 108 -5 99 -148 hvcurveto
            return
          </CharString>
          <CharString index="190">
            55 87 28 hstemhm
            return
          </CharString>
          <CharString index="191">
            32 hstem
            0 300 vstem
            -160 vmoveto
            300 32 -300 hlineto
            return
          </CharString>
          <CharString index="192">
            30 165 30 126 30 hstem
            40 31 132 33 vstem
            36 return
          </CharString>
          <CharString index="193">
            33 377 -25 hlineto
            -68 -39 rlineto
            -33 vlineto
            60 31 rlineto
            endchar
          </CharString>
          <CharString index="194">
            53 21 -21 294 34 326 34 return
          </CharString>
          <CharString index="195">
            30 hstem
            -212 206 vstem
            return
          </CharString>
          <CharString index="196">
            -36 callgsubr
            hstem
            return
          </CharString>
          <CharString index="197">
            hstemhm
            81 35 301 35 return
          </CharString>
          <CharString index="198">
            -4 102 rlineto
            -27 hlineto
            return
          </CharString>
          <CharString index="199">
            hintmask 1111110100000000
            -93 callgsubr
            return
          </CharString>
          <CharString index="200">
            233 0 34 185 34 78 34 259 64 -34 34 return
          </CharString>
          <CharString index="201">
            17 8 rlineto
            42 22 19 10 75 vvcurveto
            87 -36 -85 vlineto
            -45 return
          </CharString>
          <CharString index="202">
            vstem
            -1 628 rmoveto
            567 60 -567 hlineto
            -688 vmoveto
            return
          </CharString>
          <CharString index="203">
            hstem
            24 39 vstem
            24 294 rmoveto
            23 hlineto
            16 216 rlineto
            return
          </CharString>
          <CharString index="204">
            82 -8 34 636 34 13 callsubr
            return
          </CharString>
          <CharString index="205">
            32 112 vvcurveto
            150 -67 14 -92 -53 -67 -5 -8 return
          </CharString>
          <CharString index="206">
            4 vlineto
            -56 -185 rlineto
            -5 40 vlineto
            43 190 rlineto
            return
          </CharString>
          <CharString index="207">
            17 -24 -53 -62 -28 -11 -44 -17 -30 3 4 -35 hvcurveto
            return
          </CharString>
          <CharString index="208">
            11 -8 32 -3 107 callgsubr
            return
          </CharString>
          <CharString index="209">
            -263 -193 30 673 -20 return
          </CharString>
          <CharString index="210">
            -8 34 305 34 297 34 return
          </CharString>
          <CharString index="211">
            60 60 60 60 60 return
          </CharString>
          <CharString index="212">
            -49 -3 -14 -43 vhcurveto
            return
          </CharString>
          <CharString index="213">
            -127 65 54 return
          </CharString>
          <CharString index="214">
            33 116 33 return
          </CharString>
          <CharString index="215">
            -1 -53 -177 rcurveline
            -5 40 vlineto
            42 182 rlineto
            return
          </CharString>
          <CharString index="216">
            42 147 32 148 32 hstem
            63 360 vstem
            return
          </CharString>
          <CharString index="217">
            -45 callgsubr
            195 30 return
          </CharString>
          <CharString index="218">
            107 callgsubr
            -8 -20 116 callsubr
            return
          </CharString>
          <CharString index="219">
            199 8 42 310 310 -8 42 -199 return
          </CharString>
          <CharString index="220">
            hvcurveto
            271 247 34 -283 -343 vlineto
            10 return
          </CharString>
          <CharString index="221">
            31 320 31 hstem
            32 33 134 33 vstem
            65 return
          </CharString>
          <CharString index="222">
            25 callgsubr
            endchar
          </CharString>
          <CharString index="223">
            hstemhm
            66 callsubr
            return
          </CharString>
          <CharString index="224">
            21 -21 654 34 hstem
            return
          </CharString>
          <CharString index="225">
            36 688 -36 return
          </CharString>
          <CharString index="226">
            rlineto
            -5 40 vlineto
            hintmask 10110000
            42 183 rlineto
            -1 return
          </CharString>
          <CharString index="227">
            hhcurveto
            150 34 54 158 128 -17 62 return
          </CharString>
          <CharString index="228">
            rmoveto
            88 12 30 162 162 -12 31 -88 return
          </CharString>
          <CharString index="229">
            53 callsubr
            63 36 return
          </CharString>
          <CharString index="230">
            vvcurveto
            -41 21 -31 55 9 4 0 1 9 vhcurveto
            return
          </CharString>
          <CharString index="231">
            609 -16 callgsubr
            return
          </CharString>
          <CharString index="232">
            hstem
            63 36 311 35 vstem
            return
          </CharString>
          <CharString index="233">
            445 rmoveto
            46 65 -46 hlineto
            return
          </CharString>
          <CharString index="234">
            -309 688 -20 hstem
            48 return
          </CharString>
          <CharString index="235">
            28 121 28 return
          </CharString>
          <CharString index="236">
            -177 -55 798 hstem
            20 227 vstem
            return
          </CharString>
          <CharString index="237">
            34 636 34 162 30 hstem
            63 36 return
          </CharString>
          <CharString index="238">
            -8 34 337 34 265 34 hstem
            63 return
          </CharString>
          <CharString index="239">
            -21 243 34 233 -20 hstem
            73 35 return
          </CharString>
          <CharString index="240">
            -80 -80 callgsubr
            endchar
          </CharString>
          <CharString index="241">
            34 298 34 return
          </CharString>
        <CharString name=".notdef">
          56 0 50 49 70 383 50 48 50 hstemhm
          0 50 49 53 73 60 -56 53 57 54 57 50 hintmask 1111110111000000
          0 vmoveto
          500 700 -500 hlineto
          450 -50 rmoveto
          -600 -400 600 vlineto
          179 -435 rmoveto
          53 53 hlineto
          33 21 18 23 19 vhcurveto
          30 26 37 36 67 vvcurveto
          12 -3 123 -140 -140 -11 -124 -23 -11 2 -13 2 -7 vhcurveto
          49 28 hlineto
          23 8 77 90 77 12 -59 -28 -51 -28 -24 -28 -23 vhcurveto
          -28 -23 -26 -23 -43 vvcurveto
          hintmask 1111111011000000
          -4 -179 rmoveto
          60 70 -60 hlineto
          endchar
        </CharString>
        <CharString name="A">
          -75 callsubr
          79 callsubr
          429 hmoveto
          -104 callsubr
          endchar
        </CharString>
        <CharString name="A.ss01">
          -79 callsubr
          12 callsubr
          410 hmoveto
          -107 callsubr
          endchar
        </CharString>
        <CharString name="AE">
          93 callsubr
          hstemhm
          0 638 hintmask 11101100
          403 hmoveto
          -4 callsubr
          hintmask 11110100
          69 callsubr
        </CharString>
        <CharString name="AEacute">
          93 callsubr
          62 138 hstemhm
          0 638 hintmask 11101110
          321 750 -101 callgsubr
          82 -755 rmoveto
          -4 callsubr
          hintmask 11110110
          69 callsubr
        </CharString>
        <CharString name="Aacute">
          -75 callsubr
          62 138 79 callsubr
          229 750 -101 callgsubr
          200 -755 rmoveto
          -104 callsubr
          endchar
        </CharString>
        <CharString name="Aacute.ss01">
          -79 callsubr
          54 138 12 callsubr
          237 750 -101 callgsubr
          173 -755 -106 callsubr
          endchar
        </CharString>
        <CharString name="Abreve">
          -75 callsubr
          59 28 hstem
          144 43 callsubr
          351 -76 callgsubr
          78 -888 rmoveto
          -104 callsubr
          endchar
        </CharString>
        <CharString name="Abreve.ss01">
          20 callsubr
          hstem
          75 36 46 32 143 11 callgsubr
          -888 -106 callsubr
          endchar
        </CharString>
        <CharString name="Acircumflex">
          -75 callsubr
          170 30 79 callsubr
          144 750 rmoveto
          27 hlineto
          76 108 -56 callsubr
          285 -755 rmoveto
          -104 callsubr
          endchar
        </CharString>
        <CharString name="Acircumflex.ss01">
          -79 callsubr
          162 30 hstem
          75 36 299 15 callsubr
          250 -755 -106 callsubr
          endchar
        </CharString>
        <CharString name="Adieresis">
          -75 callsubr
          82 61 hstem
          139 36 callsubr
          vstem
          139 770 -87 callsubr
          117 -831 rmoveto
          -104 callsubr
          endchar
        </CharString>
        <CharString name="Adieresis.ss01">
          -79 callsubr
          73 61 hstem
          75 36 44 36 callsubr
          40 36 vstem
          155 769 -87 callsubr
          82 -830 -106 callsubr
          endchar
        </CharString>
        <CharString name="Agrave">
          -75 callsubr
          62 138 79 callsubr
          241 750 -89 callgsubr
          263 -883 rmoveto
          -104 callsubr
          endchar
        </CharString>
        <CharString name="Agrave.ss01">
          -79 callsubr
          54 138 12 callsubr
          260 750 -89 callgsubr
          225 -883 -106 callsubr
          endchar
        </CharString>
        <CharString name="Amacron">
          -75 callsubr
          164 36 hstem
          155 184 vstem
          155 852 -58 callsubr
          274 -888 rmoveto
          -104 callsubr
          endchar
        </CharString>
        <CharString name="Amacron.ss01">
          -79 callsubr
          156 37 callsubr
          -888 -106 callsubr
          endchar
        </CharString>
        <CharString name="Aogonek">
          50 -196 32 185 -65 callgsubr
          hstem
          368 34 vstem
          402 -118 rmoveto
          39 32 53 27 26 vhcurveto
          6 hlineto
          -201 688 rlineto
          -39 hlineto
          -200 -688 rlineto
          36 hlineto
          63 219 rlineto
          240 hlineto
          62 -217 rlineto
          -34 -35 -26 -50 -41 vvcurveto
          -41 21 -31 -56 callgsubr
          -35 -12 20 26 hvcurveto
          -266 371 rmoveto
          108 371 rlineto
          5 hlineto
          107 -371 rlineto
          endchar
        </CharString>
        <CharString name="Aogonek.ss01">
          77 -196 32 185 -21 274 34 354 34 hstemhm
          75 36 239 34 26 36 hintmask 00000000
          hintmask 11111110
          431 -164 rmoveto
          -35 -12 20 26 39 32 53 27 26 hvcurveto
          3 3 hlineto
          1 1 rlineto
          -1 hlineto
          hintmask 11111010
          390 vlineto
          240 -15 62 -170 -172 -14 -62 -240 vhcurveto
          -394 36 274 299 -272 vlineto
          hintmask 11111110
          -35 -36 -25 -50 -40 vvcurveto
          -41 21 -31 -56 callgsubr
          hintmask 11111010
          -320 472 rmoveto
          116 vlineto
          191 9 47 141 140 9 -47 -191 vhcurveto
          -116 vlineto
          endchar
        </CharString>
        <CharString name="Aring">
          111 callgsubr
          hstem
          156 107 callsubr
          vstem
          270 678 -48 callgsubr
        </CharString>
        <CharString name="Aring.ss01">
          -79 callsubr
          50 128 callsubr
          hstem
          75 36 60 107 callsubr
          57 36 vstem
          261 746 -90 callsubr
          149 -774 -106 callsubr
          endchar
        </CharString>
        <CharString name="Aringacute">
          111 callgsubr
          62 138 hstem
          156 107 callsubr
          vstem
          330 1049 -64 callgsubr
          15 -238 -48 callgsubr
        </CharString>
        <CharString name="Aringacute.ss01">
          -79 callsubr
          36 128 callsubr
          32 138 hstem
          75 36 59 107 callsubr
          58 36 vstem
          247 941 -101 callgsubr
          13 -214 -90 callsubr
          150 -760 -106 callsubr
          endchar
        </CharString>
        <CharString name="Atilde">
          -75 callsubr
          73 -46 callsubr
          115 -30 callsubr
          hintmask 00000000
          hintmask 11111110
          380 18 callsubr
          hintmask 11101110
          -102 callsubr
          hintmask 11111110
          -93 callgsubr
          hintmask 11101110
          49 -856 rmoveto
          -104 callsubr
          endchar
        </CharString>
        <CharString name="Atilde.ss01">
          -79 callsubr
          65 116 callgsubr
          18 -30 callsubr
          16 36 hintmask 0000000000000000
          hintmask 1111110110000000
          394 18 callsubr
          hintmask 1110111010000000
          -102 callsubr
          hintmask 1111110110000000
          -93 callgsubr
          hintmask 1110110010000000
          16 -856 -106 callsubr
          endchar
        </CharString>
        <CharString name="B">
          52 0 134 callsubr
          288 34 hstemhm
          81 36 279 36 -30 36 hintmask 11111000
          81 hmoveto
          192 hlineto
          hintmask 11110100
          144 21 92 88 74 -13 78 -96 18 hvcurveto
          4 vlineto
          hintmask 11111000
          74 16 29 58 88 vvcurveto
          101 -32 71 -120 vhcurveto
          -199 hlineto
          193 -322 rmoveto
          -157 288 157 hlineto
          96 26 -45 -99 -94 -46 -50 -76 hvcurveto
          hintmask 11110100
          2 -332 rmoveto
          -159 298 159 hlineto
          89 37 -45 -104 -101 -30 -48 -96 hvcurveto
          endchar
        </CharString>
        <CharString name="C">
          -41 -8 88 callgsubr
          vstem
          365 2 -88 callsubr
        </CharString>
        <CharString name="Cacute">
          -41 122 callsubr
          vstem
          186 750 -101 callgsubr
          179 -753 -88 callsubr
        </CharString>
        <CharString name="Cacute.loclPLK">
          -41 122 callsubr
          vstem
          186 750 -74 callgsubr
          179 -753 -88 callsubr
        </CharString>
        <CharString name="Ccaron">
          -41 72 callgsubr
          30 hstem
          63 36 vstem
          179 750 -99 callsubr
          266 -881 -88 callsubr
        </CharString>
        <CharString name="Ccedilla">
          -41 -8 34 -8 -21 665 34 hstemhm
          63 36 hintmask 10110000
          266 26 rmoveto
          -151 -16 32 286 286 16 32 151 29 40 -4 -6 28 hvcurveto
          32 vlineto
          7 -26 -44 5 -35 hhcurveto
          -167 -28 -45 -307 hvcurveto
          hintmask 01110000
          -259 20 -72 103 -16 vhcurveto
          -55 -182 119 callsubr
          14 15 0 16 hhcurveto
          35 44 4 6 28 hvcurveto
          34 vlineto
          -6 -26 -42 -4 -31 hhcurveto
          endchar
        </CharString>
        <CharString name="Ccircumflex">
          -41 -8 130 callsubr
          vstem
          99 750 rmoveto
          27 hlineto
          76 108 -56 callsubr
          266 -753 -88 callsubr
        </CharString>
        <CharString name="Cdotaccent">
          -41 -44 callsubr
          118 61 hstem
          63 36 82 41 vstem
          181 814 -39 callsubr
          184 -873 -88 callsubr
        </CharString>
        <CharString name="D">
          57 0 34 620 34 hstem
          81 36 285 -8 callsubr
          endchar
        </CharString>
        <CharString name="Dcaron">
          57 95 callgsubr
          228 750 -99 callsubr
          -67 -883 rmoveto
          -48 callsubr
          endchar
        </CharString>
        <CharString name="Dcroat">
          -43 callgsubr
        </CharString>
        <CharString name="E">
          -67 callsubr
          134 callgsubr
          81 hmoveto
          -92 callsubr
          endchar
        </CharString>
        <CharString name="Eacute">
          -67 callsubr
          62 138 134 callgsubr
          224 750 -101 callgsubr
          -143 -755 rmoveto
          -92 callsubr
          endchar
        </CharString>
        <CharString name="Ebreve">
          -67 callsubr
          59 28 hstemhm
          81 37 16 -44 callgsubr
          hintmask 11111010
          341 888 rmoveto
          -32 hlineto
          -75 -2 -38 -70 vhcurveto
          hintmask 11111110
          -70 -1 38 75 hvcurveto
          -32 hlineto
          -82 0 -59 103 vhcurveto
          hintmask 11111010
          103 1 59 82 hvcurveto
          -260 -888 rmoveto
          -92 callsubr
          endchar
        </CharString>
        <CharString name="Ecaron">
          -67 callsubr
          62 30 134 callgsubr
          215 750 -99 callsubr
          -54 -883 rmoveto
          -92 callsubr
          endchar
        </CharString>
        <CharString name="Ecircumflex">
          -67 callsubr
          170 30 134 callgsubr
          137 750 rmoveto
          27 hlineto
          76 108 -56 callsubr
          -56 -755 rmoveto
          -92 callsubr
          endchar
        </CharString>
        <CharString name="Edieresis">
          -67 callsubr
          82 61 hstemhm
          81 37 15 36 callsubr
          hintmask 00000000
          hintmask 11111110
          133 770 -87 callsubr
          hintmask 11111010
          -225 -831 rmoveto
          -92 callsubr
          endchar
        </CharString>
        <CharString name="Edotaccent">
          -67 callsubr
          126 61 hstem
          81 37 98 41 vstem
          216 814 -39 callsubr
          -135 -875 rmoveto
          -92 callsubr
          endchar
        </CharString>
        <CharString name="Egrave">
          -67 callsubr
          62 138 134 callgsubr
          238 750 -89 callgsubr
          -82 -883 rmoveto
          -92 callsubr
          endchar
        </CharString>
        <CharString name="Emacron">
          -67 callsubr
          164 36 hstemhm
          81 37 27 184 hintmask 00000000
          hintmask 11111100
          145 852 -58 callsubr
          hintmask 11111000
          -64 -888 rmoveto
          -92 callsubr
          endchar
        </CharString>
        <CharString name="Eng">
          90 -193 30 184 72 callsubr
          90 callsubr
          hintmask 11011100
          417 688 rmoveto
          -598 -4 vlineto
          -291 598 rlineto
          -41 -688 35 hlineto
          hintmask 11101100
          604 4 vlineto
          297 -604 rlineto
          -106 vlineto
          -45 -6 -12 -68 vhcurveto
          -30 vlineto
          75 34 5 92 hvcurveto
          784 vlineto
          endchar
        </CharString>
        <CharString name="Eogonek">
          -12 -196 32 164 34 297 -24 callgsubr
          hstem
          81 37 173 34 33 35 vstem
          367 6 callgsubr
          21 24 42 39 54 29 23 hvcurveto
          34 -275 297 241 34 -241 289 275 34 -312 -688 277 vlineto
          -38 -35 -29 -48 -44 vvcurveto
          -37 21 -32 55 vhcurveto
          endchar
        </CharString>
        <CharString name="Eth">
          -43 callgsubr
        </CharString>
        <CharString name="Euro">
          6 -8 34 226 34 119 34 223 34 hstem
          100 36 vstem
          295 -8 rmoveto
          35 44 4 6 28 hvcurveto
          34 vlineto
          -6 -26 -42 -4 -31 hhcurveto
          -134 -28 24 202 -5 hvcurveto
          224 34 -224 119 224 34 -224 hlineto
          199 5 29 24 133 hhcurveto
          29 40 -4 -6 28 hvcurveto
          32 vlineto
          7 -26 -44 5 -35 hhcurveto
          -148 -39 -35 -222 -7 hvcurveto
          -61 -34 60 -119 -60 -34 61 hlineto
          -228 6 39 -32 149 hhcurveto
          endchar
        </CharString>
        <CharString name="F">
          -35 21 -21 317 34 303 34 134 callgsubr
          81 hmoveto
          37 317 234 34 -234 303 261 34 -298 hlineto
          endchar
        </CharString>
        <CharString name="G">
          -6 callsubr
          hstem
          63 36 288 36 vstem
          387 315 -96 callsubr
          endchar
        </CharString>
        <CharString name="G.ss01">
          1 callsubr
          125 callsubr
          268 -8 -96 callgsubr
          endchar
        </CharString>
        <CharString name="G_tilde.loclGUA">
          -6 callsubr
          97 -46 callsubr
          63 36 12 -30 callsubr
          11 36 hintmask 0000000000000000
          hintmask 1111110110000000
          376 18 callgsubr
          hintmask 1110111010000000
          -102 callsubr
          hintmask 1111110110000000
          -93 callgsubr
          hintmask 1110110010000000
          11 -573 -96 callsubr
          endchar
        </CharString>
        <CharString name="Gbreve">
          -6 callsubr
          51 28 hstem
          63 36 41 -44 callgsubr
          40 36 vstem
          347 -76 callgsubr
          40 -573 -96 callsubr
          endchar
        </CharString>
        <CharString name="Gbreve.ss01">
          1 callsubr
          51 28 hstem
          63 36 50 -44 callgsubr
          54 35 vstem
          356 -76 callgsubr
          -88 -896 -96 callgsubr
          endchar
        </CharString>
        <CharString name="Gcaron">
          -6 callsubr
          54 30 hstem
          63 36 288 36 vstem
          221 750 -99 callsubr
          246 -568 -96 callsubr
          endchar
        </CharString>
        <CharString name="Gcaron.ss01">
          1 callsubr
          54 30 125 callsubr
          230 750 -99 callsubr
          118 -891 -96 callgsubr
          endchar
        </CharString>
        <CharString name="Gcircumflex">
          -6 callsubr
          162 30 hstem
          63 36 288 36 vstem
          141 750 rmoveto
          27 hlineto
          76 108 -56 callsubr
          246 -440 -96 callsubr
          endchar
        </CharString>
        <CharString name="Gcircumflex.ss01">
          1 callsubr
          162 30 125 callsubr
          150 750 rmoveto
          27 hlineto
          76 108 -56 callsubr
          118 -763 -96 callgsubr
          endchar
        </CharString>
        <CharString name="Gcommaaccent">
          44 -10 callsubr
          54 23 callgsubr
          hstem
          63 36 155 26 107 36 vstem
          387 315 -96 callsubr
          -47 -522 -82 callgsubr
          endchar
        </CharString>
        <CharString name="Gcommaaccent.ss01">
          61 -10 callsubr
          54 23 callsubr
          hstem
          63 36 163 26 122 35 vstem
          268 -8 -96 callgsubr
          -52 -199 -82 callgsubr
          endchar
        </CharString>
        <CharString name="Gdotaccent">
          -6 callsubr
          118 61 hstem
          63 36 124 41 123 36 vstem
          223 814 -39 callsubr
          164 -560 -96 callsubr
          endchar
        </CharString>
        <CharString name="Gdotaccent.ss01">
          1 callsubr
          118 61 hstem
          63 36 132 41 138 35 vstem
          231 814 -39 callsubr
          37 -883 -96 callgsubr
          endchar
        </CharString>
        <CharString name="Gtilde.loclGUA.ss01">
          1 callsubr
          97 -46 callsubr
          63 36 21 -30 callsubr
          25 35 hintmask 0000000000000000
          hintmask 1111110110000000
          385 18 callgsubr
          hintmask 1110111010000000
          -102 callsubr
          hintmask 1111110110000000
          -93 callgsubr
          hintmask 1110110010000000
          -117 -896 -96 callgsubr
          endchar
        </CharString>
        <CharString name="H">
          90 21 -21 331 34 323 -20 hstem
          81 36 299 33 callgsubr
          endchar
        </CharString>
        <CharString name="Hbar">
          90 21 -21 311 34 149 36 -36 194 hstemhm
          81 108 callgsubr
          hintmask 00000000
          hintmask 11011100
          416 688 rmoveto
          hintmask 11101100
          -158 -299 vlineto
          hintmask 11011100
          158 -36 -688 36 311 299 -311 36 688 vlineto
          -335 -343 rmoveto
          hintmask 11101100
          149 299 -149 vlineto
          endchar
        </CharString>
        <CharString name="Hcircumflex">
          90 21 -21 331 34 323 -20 190 30 hstem
          81 108 callgsubr
          vstem
          164 750 rmoveto
          27 hlineto
          76 108 -56 callsubr
          252 -755 rmoveto
          60 callgsubr
          endchar
        </CharString>
        <CharString name="I">
          -238 89 callsubr
          85 36 vstem
          85 hmoveto
          -10 callgsubr
        </CharString>
        <CharString name="IJ">
          -13 90 callgsubr
          85 36 199 36 vstem
          85 hmoveto
          44 callgsubr
          141 -654 -72 callsubr
        </CharString>
        <CharString name="Iacute">
          -238 -36 callgsubr
          82 138 hstem
          85 36 vstem
          83 750 -101 callgsubr
          2 -755 -19 callsubr
        </CharString>
        <CharString name="Iacute_J.loclNLD">
          -13 56 callsubr
          82 138 hstem
          85 36 199 36 vstem
          87 750 -101 callgsubr
          236 -5 -101 callgsubr
          -238 -755 rmoveto
          44 callgsubr
          141 -654 -72 callsubr
        </CharString>
        <CharString name="Ibreve">
          -238 -36 callgsubr
          79 28 hstem
          -1 32 54 36 53 32 vstem
          206 -76 callgsubr
          -121 -888 -19 callsubr
        </CharString>
        <CharString name="Icircumflex">
          -238 -36 callgsubr
          190 30 hstem
          85 36 vstem
          750 vmoveto
          27 hlineto
          76 108 -56 callsubr
          85 -755 -19 callsubr
        </CharString>
        <CharString name="Idieresis">
          -238 -36 callgsubr
          101 61 hstem
          -5 42 48 36 47 42 vstem
          -5 769 -87 callsubr
          -83 -830 -19 callsubr
        </CharString>
        <CharString name="Idotaccent">
          -238 -36 callgsubr
          146 61 hstemhm
          82 41 -38 36 hintmask 00000000
          hintmask 11110000
          82 814 -39 callsubr
          hintmask 11101000
          3 -875 -19 callsubr
        </CharString>
        <CharString name="Igrave">
          -238 -36 callgsubr
          82 138 hstem
          85 36 vstem
          100 750 -89 callgsubr
          60 -883 -19 callsubr
        </CharString>
        <CharString name="Imacron">
          -238 -36 callgsubr
          184 36 hstemhm
          10 184 -109 36 hintmask 00000000
          hintmask 11110000
          10 852 -58 callsubr
          hintmask 11101000
          75 -888 -19 callsubr
        </CharString>
        <CharString name="Iogonek">
          -238 -196 32 185 -20 callgsubr
          hstemhm
          24 34 27 36 hintmask 00000000
          hintmask 11111000
          100 6 callgsubr
          20 26 hvcurveto
          hintmask 11101000
          40 36 55 27 23 vhcurveto
          688 -36 -688 1 vlineto
          hintmask 11111000
          -36 -35 -26 -49 -40 vvcurveto
          -41 21 -31 55 vhcurveto
          endchar
        </CharString>
        <CharString name="Itilde">
          -238 -36 callgsubr
          125 -46 callsubr
          -30 27 88 36 87 27 hintmask 00000000
          hintmask 11111110
          235 -24 callsubr
          -150 -888 -19 callsubr
        </CharString>
        <CharString name="J">
          -219 90 callgsubr
          114 36 vstem
          20 34 -72 callsubr
        </CharString>
        <CharString name="Jcircumflex">
          -219 56 callsubr
          190 30 hstem
          114 36 vstem
          30 750 rmoveto
          27 hlineto
          76 108 -56 callsubr
          -10 -721 -72 callsubr
        </CharString>
        <CharString name="K">
          34 21 -21 332 34 322 -20 hstem
          81 36 5 callsubr
          endchar
        </CharString>
        <CharString name="Kcommaaccent">
          34 -10 callsubr
          83 -21 332 34 322 -20 hstem
          81 36 132 26 5 callsubr
          -28 -539 -82 callgsubr
          endchar
        </CharString>
        <CharString name="L">
          -65 90 callgsubr
          81 37 0 callgsubr
          endchar
        </CharString>
        <CharString name="Lacute">
          -65 56 callsubr
          82 138 134 callgsubr
          85 750 -101 callgsubr
          -4 -755 rmoveto
          283 34 -246 654 -37 hlineto
          endchar
        </CharString>
        <CharString name="Lcaron">
          -65 90 callgsubr
          81 37 120 39 0 callgsubr
          145 -234 7 callgsubr
          endchar
        </CharString>
        <CharString name="Lcommaaccent">
          -65 -10 callsubr
          62 119 callgsubr
          hstem
          81 37 95 26 0 callgsubr
          86 -895 -82 callgsubr
          endchar
        </CharString>
        <CharString name="Ldot">
          -65 0 34 293 65 296 -20 hstem
          81 37 160 46 0 callgsubr
          197 -361 -81 callgsubr
        </CharString>
        <CharString name="Lslash">
          -65 90 callgsubr
          81 37 vstem
          118 34 rmoveto
          276 vlineto
          158 58 rlineto
          34 vlineto
          -158 -58 rlineto
          344 -37 -357 vlineto
          -52 -19 rlineto
          -34 vlineto
          52 19 rlineto
          -297 283 34 vlineto
          endchar
        </CharString>
        <CharString name="M">
          220 0 66 537 85 hstem
          81 35 430 36 vstem
          546 hmoveto
          36 688 -49 hlineto
          -199 -622 rlineto
          -5 hlineto
          -198 622 rlineto
          -50 -688 35 603 4 hlineto
          191 -603 rlineto
          39 hlineto
          192 603 rlineto
          4 hlineto
          endchar
        </CharString>
        <CharString name="N">
          3 callgsubr
          90 callsubr
          hintmask 01011100
          412 hmoveto
          40 688 -35 hlineto
          hintmask 10011100
          -59 callgsubr
          hintmask 01101100
          604 4 vlineto
          endchar
        </CharString>
        <CharString name="Nacute">
          3 callgsubr
          82 138 90 callsubr
          hintmask 01011110
          251 750 -101 callgsubr
          161 -755 -25 callgsubr
        </CharString>
        <CharString name="Nacute.loclPLK">
          3 callgsubr
          82 138 90 callsubr
          hintmask 01011110
          251 750 -74 callgsubr
          161 -755 -25 callgsubr
        </CharString>
        <CharString name="Ncaron">
          3 callgsubr
          82 30 90 callsubr
          hintmask 01011110
          244 750 -99 callsubr
          248 -883 -25 callgsubr
        </CharString>
        <CharString name="Ncommaaccent">
          90 -10 callsubr
          62 40 callgsubr
          hstemhm
          81 35 161 26 114 35 hintmask 1101011110000000
          412 hmoveto
          40 688 -35 hlineto
          hintmask 1110011110000000
          -59 callgsubr
          hintmask 1101101110000000
          604 4 vlineto
          111 -811 -82 callgsubr
          endchar
        </CharString>
        <CharString name="Ntilde">
          3 callgsubr
          93 -46 callsubr
          81 35 21 -30 callsubr
          15 35 hintmask 0000000000000000
          hintmask 0101111011000000
          402 18 callsubr
          hintmask 0101011101000000
          -102 callsubr
          hintmask 0101111011000000
          -93 callgsubr
          hintmask 0101011001000000
          10 -856 rmoveto
          40 688 -35 hlineto
          hintmask 1001011001000000
          -59 callgsubr
          hintmask 0110011001000000
          604 4 vlineto
          endchar
        </CharString>
        <CharString name="O">
          97 callsubr
          263 -8 -105 callgsubr
          endchar
        </CharString>
        <CharString name="OE">
          317 0 34 297 -24 callgsubr
          13 callsubr
          263 hmoveto
          459 34 -259 hlineto
          -23 -25 -2 -2 -12 hvcurveto
          50 37 9 90 1 174 rrcurveto
          225 34 -225 hlineto
          -1 168 -9 88 -50 37 rrcurveto
          -2 13 26 -2 21 hhcurveto
          259 34 -459 hlineto
          -183 -17 -44 -300 -300 17 -44 183 hvcurveto
          34 vmoveto
          -145 -19 12 298 298 19 12 145 144 20 67 callsubr
          -20 -12 -144 hvcurveto
          endchar
        </CharString>
        <CharString name="Oacute">
          -6 callgsubr
          246 750 -101 callgsubr
          17 -763 -105 callgsubr
          endchar
        </CharString>
        <CharString name="Oacute.loclPLK">
          -6 callgsubr
          247 750 -74 callgsubr
          16 -763 -105 callgsubr
          endchar
        </CharString>
        <CharString name="Obreve">
          -29 callsubr
          51 28 hstem
          63 36 60 -44 callgsubr
          61 36 vstem
          366 -76 callgsubr
          -103 -896 -105 callgsubr
          endchar
        </CharString>
        <CharString name="Ocircumflex">
          82 -8 130 callsubr
          328 15 callsubr
          103 -763 -105 callgsubr
          endchar
        </CharString>
        <CharString name="Odieresis">
          -29 callsubr
          74 61 hstem
          63 36 56 36 callsubr
          57 36 vstem
          155 770 -87 callsubr
          -65 -839 -105 callgsubr
          endchar
        </CharString>
        <CharString name="Ograve">
          -6 callgsubr
          255 750 -89 callgsubr
          83 -891 -105 callgsubr
          endchar
        </CharString>
        <CharString name="Ohorn">
          40 callsubr
          hstemhm
          26 callgsubr
          -17 32 hintmask 00000000
          hintmask 11010100
          478 753 rmoveto
          33 -32 -72 callgsubr
          -42 hlineto
          hintmask 10111000
          -71 callgsubr
          hintmask 11011000
          43 callgsubr
          hintmask 11010100
          75 callgsubr
          hintmask 10111000
          -75 callgsubr
          endchar
        </CharString>
        <CharString name="Ohungarumlaut">
          -29 callsubr
          58 125 13 callsubr
          188 754 -82 callsubr
          -56 -767 -105 callgsubr
          endchar
        </CharString>
        <CharString name="Omacron">
          -29 callsubr
          156 36 hstem
          63 36 71 184 73 36 vstem
          170 852 -58 callsubr
          93 -896 -105 callgsubr
          endchar
        </CharString>
        <CharString name="Oslash">
          97 callsubr
          463 743 -65 callsubr
        </CharString>
        <CharString name="Oslashacute">
          -6 callgsubr
          346 883 -64 callgsubr
          192 -7 -65 callsubr
        </CharString>
        <CharString name="Otilde">
          -29 callsubr
          65 -46 callsubr
          63 36 31 -30 callsubr
          32 36 hintmask 00000000
          hintmask 11111111
          395 18 callsubr
          hintmask 11011111
          -102 callsubr
          hintmask 11111111
          -93 callgsubr
          hintmask 11011111
          -132 -864 -105 callgsubr
          endchar
        </CharString>
        <CharString name="P">
          23 21 -21 274 34 346 34 hstem
          81 106 callgsubr
          81 hmoveto
          36 274 82 callsubr
          -195 hlineto
          36 -380 rmoveto
          70 callgsubr
        </CharString>
        <CharString name="Q">
          97 callsubr
          398 17 rmoveto
          57 37 8 88 202 vvcurveto
          307 -18 45 -182 -183 -17 -45 -307 -307 17 -45 183 43 33 2 8 27 vhcurveto
          67 -117 rlineto
          39 2 hlineto
          -209 139 rmoveto
          -145 -19 12 306 306 19 12 145 144 20 -12 -306 -190 -7 -77 -39 -31 hvcurveto
          -97 172 rlineto
          -41 hlineto
          106 -186 rlineto
          -6 -22 -28 0 -36 hhcurveto
          endchar
        </CharString>
        <CharString name="R">
          87 callsubr
          hstem
          81 36 282 -31 callsubr
          endchar
        </CharString>
        <CharString name="R.ss01">
          87 callgsubr
          hstem
          81 36 282 -42 callsubr
          endchar
        </CharString>
        <CharString name="Racute">
          87 callsubr
          62 138 13 callgsubr
          332 883 -64 callgsubr
          187 -750 rmoveto
          -90 callgsubr
          endchar
        </CharString>
        <CharString name="Racute.ss01">
          87 callgsubr
          62 138 13 callgsubr
          334 883 -64 callgsubr
          171 -579 -93 callsubr
          endchar
        </CharString>
        <CharString name="Rcaron">
          87 callsubr
          62 30 13 callgsubr
          272 750 rmoveto
          80 -57 callgsubr
          -27 vlineto
          -76 -108 -76 108 rlineto
          -27 -5 hlineto
          80 -80 callgsubr
          218 -750 rmoveto
          -90 callgsubr
          endchar
        </CharString>
        <CharString name="Rcaron.ss01">
          87 callgsubr
          62 30 13 callgsubr
          274 750 rmoveto
          80 -57 callgsubr
          -27 vlineto
          -76 -108 -76 108 rlineto
          -27 -5 hlineto
          80 -80 callgsubr
          202 -579 -93 callsubr
          endchar
        </CharString>
        <CharString name="Rcommaaccent">
          53 -10 callsubr
          83 -21 294 34 326 34 hstem
          81 36 142 26 114 -31 callsubr
          -40 -455 50 callsubr
        </CharString>
        <CharString name="Rcommaaccent.ss01">
          57 -10 callsubr
          83 -21 298 34 322 34 hstem
          81 36 144 26 112 -42 callsubr
          -39 -459 50 callsubr
        </CharString>
        <CharString name="S">
          4 -44 callsubr
          hstem
          50 36 276 -64 callsubr
          endchar
        </CharString>
        <CharString name="Sacute">
          4 53 callsubr
          50 106 callgsubr
          208 750 -101 callgsubr
          20 -763 -100 callgsubr
          endchar
        </CharString>
        <CharString name="Sacute.loclPLK">
          4 53 callsubr
          50 106 callgsubr
          208 750 -74 callgsubr
          20 -763 -100 callgsubr
          endchar
        </CharString>
        <CharString name="Scaron">
          4 72 callgsubr
          30 hstem
          50 106 callgsubr
          206 750 -99 callsubr
          102 -891 -100 callgsubr
          endchar
        </CharString>
        <CharString name="Scedilla">
          4 -44 callsubr
          hstem
          50 106 callgsubr
          398 188 rmoveto
          53 0 35 -7 21 vhcurveto
          -16 50 -37 10 -60 9 -122 19 rcurveline
          -61 9 -9 16 103 vvcurveto
          48 3 38 23 26 vhcurveto
          25 20 36 12 66 hhcurveto
          43 58 -5 -7 38 hvcurveto
          33 vlineto
          8 -29 -60 5 -57 hhcurveto
          -132 -45 -53 -128 -94 0 -57 88 -13 hvcurveto
          132 -20 rlineto
          90 -13 2 -10 -125 vvcurveto
          -59 -3 -50 -28 -21 vhcurveto
          -21 -28 -33 -6 -53 hhcurveto
          -40 -67 6 7 -46 hvcurveto
          -35 vlineto
          39 -6 56 -5 48 108 callsubr
          128 2 34 56 138 vvcurveto
          endchar
        </CharString>
        <CharString name="Scircumflex">
          4 -44 callsubr
          162 30 hstem
          50 106 callgsubr
          121 750 rmoveto
          27 hlineto
          76 108 -56 callsubr
          107 -763 -100 callgsubr
          endchar
        </CharString>
        <CharString name="Scommaaccent">
          4 -10 callsubr
          54 34 636 34 hstem
          50 36 148 26 102 -64 callsubr
          -40 -199 -82 callgsubr
          endchar
        </CharString>
        <CharString name="T">
          -30 117 callsubr
          189 36 vstem
          19 callgsubr
          endchar
        </CharString>
        <CharString name="Tbar">
          -30 21 -21 335 32 287 34 hstem
          189 36 vstem
          391 654 rmoveto
          34 -368 -34 166 -287 -135 -32 135 -335 36 335 135 32 -135 287 vlineto
          endchar
        </CharString>
        <CharString name="Tcaron">
          -30 21 -21 654 34 62 30 hstem
          189 36 vstem
          184 750 -99 callsubr
          85 -883 rmoveto
          51 callsubr
          endchar
        </CharString>
        <CharString name="Thorn">
          23 21 -21 143 34 346 34 -34 165 hstemhm
          81 36 276 36 hintmask 11101100
          81 hmoveto
          36 143 82 callsubr
          -159 hlineto
          hintmask 11011100
          131 -36 vlineto
          36 -511 rmoveto
          hintmask 11101100
          70 callgsubr
        </CharString>
        <CharString name="U">
          -35 callgsubr
          12 callsubr
          410 688 rmoveto
          -424 vlineto
          -102 callgsubr
          394 vlineto
          endchar
        </CharString>
        <CharString name="Uacute">
          -35 callgsubr
          82 138 12 callsubr
          244 750 -101 callgsubr
          166 -67 rmoveto
          -424 vlineto
          -102 callgsubr
          394 vlineto
          endchar
        </CharString>
        <CharString name="Ubreve">
          -35 callgsubr
          79 28 hstem
          75 36 46 32 143 11 callgsubr
          -200 rmoveto
          -424 vlineto
          -102 callgsubr
          394 vlineto
          endchar
        </CharString>
        <CharString name="Ucircumflex">
          -35 callgsubr
          190 30 12 callsubr
          158 750 rmoveto
          27 hlineto
          76 108 -56 callsubr
          252 -67 rmoveto
          -424 vlineto
          -102 callgsubr
          394 vlineto
          endchar
        </CharString>
        <CharString name="Udieresis">
          -35 callgsubr
          102 61 hstem
          75 36 42 36 callsubr
          42 36 vstem
          153 770 5 callgsubr
          -143 rmoveto
          -424 vlineto
          -102 callgsubr
          394 vlineto
          endchar
        </CharString>
        <CharString name="Ugrave">
          -35 callgsubr
          82 138 12 callsubr
          265 750 -89 callgsubr
          220 -195 rmoveto
          -424 vlineto
          -102 callgsubr
          394 vlineto
          endchar
        </CharString>
        <CharString name="Uhorn">
          77 -8 34 634 28 10 callsubr
          59 32 vstem
          505 786 rmoveto
          -72 callgsubr
          -13 hlineto
          -36 -424 hlineto
          -102 callgsubr
          366 13 vlineto
          -9 callsubr
          vlineto
          endchar
        </CharString>
        <CharString name="Uhungarumlaut">
          -35 callgsubr
          86 125 12 callsubr
          186 754 -82 callsubr
          93 -71 rmoveto
          -424 vlineto
          -102 callgsubr
          394 vlineto
          endchar
        </CharString>
        <CharString name="Umacron">
          -35 callgsubr
          184 37 callsubr
          -200 rmoveto
          -424 vlineto
          -102 callgsubr
          394 vlineto
          endchar
        </CharString>
        <CharString name="Uogonek">
          77 104 callgsubr
          34 662 -20 hstem
          75 36 159 34 106 36 vstem
          410 688 rmoveto
          -424 vlineto
          -191 -9 -47 -140 -141 -9 47 191 vhcurveto
          424 -36 -394 vlineto
          -240 14 -62 172 26 23 2 3 20 vhcurveto
          -36 -37 -24 -46 -38 vvcurveto
          -41 21 -31 -56 callgsubr
          -35 -12 20 26 50 39 57 42 27 hvcurveto
          54 35 7 81 162 vvcurveto
          394 vlineto
          endchar
        </CharString>
        <CharString name="Uring">
          -35 callgsubr
          64 128 callsubr
          hstem
          75 36 59 107 callsubr
          58 36 vstem
          260 732 -90 callsubr
          150 -72 rmoveto
          -424 vlineto
          -102 callgsubr
          394 vlineto
          endchar
        </CharString>
        <CharString name="Utilde">
          -35 callgsubr
          125 39 callgsubr
          hintmask 00000000
          hintmask 11111011
          393 18 callgsubr
          hintmask 11011101
          -102 callsubr
          hintmask 11111011
          -93 callgsubr
          hintmask 11011001
          17 -200 rmoveto
          -424 vlineto
          -102 callgsubr
          394 vlineto
          endchar
        </CharString>
        <CharString name="V">
          15 0 66 622 -20 hstem
          16 426 vstem
          210 hmoveto
          39 hlineto
          193 688 rlineto
          -36 hlineto
          -173 -622 rlineto
          -5 hlineto
          -173 622 rlineto
          -39 hlineto
          endchar
        </CharString>
        <CharString name="W">
          21 callsubr
          hstemhm
          21 643 hintmask 10110000
          483 hmoveto
          -81 callsubr
          hintmask 11010000
          35 callgsubr
        </CharString>
        <CharString name="Wacute">
          21 callsubr
          82 138 hstemhm
          21 643 hintmask 10111000
          327 750 -101 callgsubr
          156 -755 rmoveto
          -81 callsubr
          hintmask 11011000
          35 callgsubr
        </CharString>
        <CharString name="Wcircumflex">
          21 callsubr
          190 30 hstemhm
          21 643 hintmask 10111000
          240 750 rmoveto
          27 hlineto
          76 108 -56 callsubr
          243 -755 rmoveto
          -81 callsubr
          hintmask 11011000
          35 callgsubr
        </CharString>
        <CharString name="Wdieresis">
          21 callsubr
          146 61 hstemhm
          235 36 callsubr
          hintmask 10111100
          235 814 -87 callsubr
          75 -875 rmoveto
          -81 callsubr
          hintmask 11011100
          35 callgsubr
        </CharString>
        <CharString name="Wgrave">
          21 callsubr
          82 138 hstemhm
          21 643 hintmask 10111000
          337 750 -89 callgsubr
          221 -883 rmoveto
          -81 callsubr
          hintmask 11011000
          35 callgsubr
        </CharString>
        <CharString name="X">
          37 89 callsubr
          23 434 vstem
          416 hmoveto
          41 hlineto
          -194 347 192 341 rlineto
          -40 hlineto
          -171 -306 rlineto
          -5 hlineto
          -172 306 rlineto
          -41 hlineto
          192 -342 -195 -346 rlineto
          40 hlineto
          174 309 rlineto
          5 hlineto
          endchar
        </CharString>
        <CharString name="Y">
          -22 89 callsubr
          192 36 vstem
          192 hmoveto
          -86 callsubr
          endchar
        </CharString>
        <CharString name="Y.loclGUA">
          -17 callsubr
          34 callsubr
          360 688 -91 callgsubr
          endchar
        </CharString>
        <CharString name="Yacute">
          -22 -36 callgsubr
          82 138 hstem
          192 36 vstem
          199 750 -101 callgsubr
          -7 -755 rmoveto
          -86 callsubr
          endchar
        </CharString>
        <CharString name="Yacute.loclGUA">
          -17 callsubr
          82 138 34 callsubr
          293 883 -64 callgsubr
          142 -62 -91 callgsubr
          endchar
        </CharString>
        <CharString name="Ycircumflex">
          -22 -36 callgsubr
          190 30 hstem
          192 36 vstem
          109 750 rmoveto
          27 hlineto
          76 108 -56 callsubr
          83 -755 rmoveto
          -86 callsubr
          endchar
        </CharString>
        <CharString name="Ycircumflex.loclGUA">
          -17 callsubr
          190 30 34 callsubr
          210 858 -69 callgsubr
          226 -62 -91 callgsubr
          endchar
        </CharString>
        <CharString name="Ydieresis">
          -22 -36 callgsubr
          102 61 hstem
          105 42 45 36 50 42 vstem
          105 770 -87 callsubr
          -86 -831 rmoveto
          -86 callsubr
          endchar
        </CharString>
        <CharString name="Ydieresis.loclGUA">
          -17 callsubr
          146 61 hstem
          25 36 41 42 48 36 47 42 43 36 vstem
          144 875 38 callsubr
          43 -126 -91 callgsubr
          endchar
        </CharString>
        <CharString name="Ygrave">
          -22 -36 callgsubr
          82 138 hstem
          192 36 vstem
          205 750 -89 callgsubr
          62 -883 rmoveto
          -86 callsubr
          endchar
        </CharString>
        <CharString name="Ygrave.loclGUA">
          -17 callsubr
          82 138 34 callsubr
          228 750 -52 callgsubr
          156 -62 -91 callgsubr
          endchar
        </CharString>
        <CharString name="Z">
          -24 0 34 620 34 hstem
          33 356 vstem
          33 hmoveto
          -79 callgsubr
          endchar
        </CharString>
        <CharString name="Zacute">
          -24 0 34 620 34 62 138 hstem
          33 356 vstem
          195 750 -101 callgsubr
          -162 -755 rmoveto
          -79 callgsubr
          endchar
        </CharString>
        <CharString name="Zacute.loclPLK">
          -24 0 34 620 34 62 138 hstem
          33 356 vstem
          195 750 -74 callgsubr
          -162 -755 rmoveto
          -79 callgsubr
          endchar
        </CharString>
        <CharString name="Zcaron">
          -24 0 34 620 34 62 30 hstem
          33 356 vstem
          193 750 -99 callsubr
          -80 -883 rmoveto
          -79 callgsubr
          endchar
        </CharString>
        <CharString name="Zdotaccent">
          -24 0 34 620 34 126 61 hstem
          189 41 vstem
          189 814 -39 callsubr
          -156 -875 rmoveto
          -79 callgsubr
          endchar
        </CharString>
        <CharString name="a">
          -80 callsubr
          71 callsubr
          hintmask 10111100
          185 -8 -52 callsubr
          hintmask 01111100
          -107 callgsubr
          hintmask 10111100
          -95 callgsubr
          endchar
        </CharString>
        <CharString name="aacute">
          -80 callsubr
          87 138 39 callsubr
          193 605 -101 callgsubr
          -8 6 callsubr
          hintmask 01111110
          -107 callgsubr
          hintmask 10111110
          -95 callgsubr
          endchar
        </CharString>
        <CharString name="abreve">
          -80 callsubr
          84 28 hstemhm
          41 35 35 -44 callgsubr
          6 35 hintmask 0000000000000000
          hintmask 1011111100000000
          318 -70 callgsubr
          -133 -751 rmoveto
          hintmask 1011111010000000
          -78 callgsubr
          hintmask 0111111010000000
          -107 callgsubr
          hintmask 1011111100000000
          -66 callsubr
          hintmask 1011111010000000
          -74 callsubr
          hintmask 1011111100000000
          -12 callgsubr
        </CharString>
        <CharString name="acircumflex">
          96 callgsubr
          39 callsubr
          113 605 rmoveto
          27 hlineto
          76 108 -56 callsubr
          72 6 callsubr
          hintmask 01111110
          -107 callgsubr
          hintmask 10111110
          -95 callgsubr
          endchar
        </CharString>
        <CharString name="acute">
          -332 605 138 hstem
          7 99 vstem
          7 605 -101 callgsubr
          endchar
        </CharString>
        <CharString name="acute.case.loclPLK">
          -332 750 138 hstem
          7 69 vstem
          7 750 -74 callgsubr
          endchar
        </CharString>
        <CharString name="acute.loclPLK">
          -332 605 138 hstem
          7 69 vstem
          7 605 -74 callgsubr
          endchar
        </CharString>
        <CharString name="acutecomb">
          605 138 hstem
          -105 99 vstem
          -105 605 -101 callgsubr
          endchar
        </CharString>
        <CharString name="acutecomb.case">
          750 138 hstem
          -105 99 vstem
          -105 750 -101 callgsubr
          endchar
        </CharString>
        <CharString name="adieresis">
          -80 callsubr
          151 61 hstemhm
          41 35 33 36 callsubr
          0 35 hintmask 1011111010000000
          109 669 rmoveto
          42 61 -42 hlineto
          hintmask 1011111100000000
          173 -61 rmoveto
          42 61 -42 hlineto
          -97 -738 rmoveto
          hintmask 1011111010000000
          -78 callgsubr
          hintmask 0111111010000000
          -107 callgsubr
          hintmask 1011111100000000
          -66 callsubr
          hintmask 1011111010000000
          -74 callsubr
          hintmask 1011111100000000
          -12 callgsubr
        </CharString>
        <CharString name="ae">
          130 callgsubr
          hstem
          56 callgsubr
          251 35 vstem
          645 260 -78 callsubr
        </CharString>
        <CharString name="aeacute">
          130 callgsubr
          87 138 hstem
          56 callgsubr
          251 35 vstem
          434 738 -64 callgsubr
          286 -345 -78 callsubr
        </CharString>
        <CharString name="agrave">
          -80 callsubr
          87 138 39 callsubr
          214 605 -89 callgsubr
          46 -746 -52 callsubr
          hintmask 01111110
          -107 callgsubr
          hintmask 10111110
          -95 callgsubr
          endchar
        </CharString>
        <CharString name="amacron">
          -80 callsubr
          189 36 hstemhm
          41 35 47 184 17 35 hintmask 00000000
          hintmask 10111111
          123 707 -58 callsubr
          62 -751 rmoveto
          hintmask 10111101
          -78 callgsubr
          hintmask 01111101
          -107 callgsubr
          hintmask 10111111
          -66 callsubr
          hintmask 10111101
          -74 callsubr
          hintmask 10111111
          -12 callgsubr
        </CharString>
        <CharString name="ampersand">
          81 -8 32 308 34 298 32 hstemhm
          56 35 -31 35 284 35 hintmask 11101100
          379 366 rmoveto
          -330 vlineto
          -10 -36 -44 -2 -34 hhcurveto
          hintmask 11110100
          -116 -58 23 130 92 10 63 113 hvcurveto
          81 34 -81 hlineto
          hintmask 11101100
          -113 -6 88 59 106 21 45 164 32 56 -7 -9 43 hvcurveto
          32 vlineto
          9 -40 -63 7 -44 hhcurveto
          -172 -32 -68 -113 -100 30 -43 60 -19 hvcurveto
          -4 vlineto
          hintmask 11110100
          -61 -19 -33 -34 -112 vvcurveto
          -124 26 -68 183 60 67 10 6 22 vhcurveto
          324 90 34 vlineto
          endchar
        </CharString>
        <CharString name="aogonek">
          -14 104 callgsubr
          -66 callgsubr
          hstemhm
          41 35 189 34 25 35 hintmask 00000000
          hintmask 11011111
          346 -164 rmoveto
          -35 -12 20 25 hvcurveto
          hintmask 10111101
          43 36 55 24 21 vhcurveto
          330 vlineto
          153 -29 35 -127 -55 -50 -6 -6 -31 vhcurveto
          -33 vlineto
          6 31 58 7 37 hhcurveto
          112 19 -16 -146 hvcurveto
          -46 vlineto
          2 -50 -78 3 -30 hhcurveto
          -97 -28 -34 -111 hvcurveto
          hintmask 11011101
          -122 46 -24 98 52 67 7 79 20 vhcurveto
          4 hlineto
          4 -73 rlineto
          hintmask 11011111
          -39 -36 -28 -50 -44 vvcurveto
          -39 21 -32 -56 callgsubr
          hintmask 11011101
          -22 374 rmoveto
          -50 -4 -36 -13 -40 vhcurveto
          -58 callgsubr
          -88 -21 21 93 -17 callgsubr
          hvcurveto
          150 hlineto
          endchar
        </CharString>
        <CharString name="approxequal">
          -10 124 33 18 33 92 -46 callsubr
          66 27 248 27 hintmask 01011100
          66 289 rmoveto
          27 hlineto
          45 5 17 30 26 28 -12 -11 26 vhcurveto
          hintmask 01111100
          -14 34 32 -14 85 callgsubr
          13 10 -26 vhcurveto
          hintmask 01011100
          14 -34 -32 14 -32 hhcurveto
          -52 -10 -25 -70 hvcurveto
          -176 vmoveto
          27 hlineto
          45 5 17 30 26 28 -12 -11 26 vhcurveto
          hintmask 11011100
          -15 34 32 -13 85 callgsubr
          12 11 -26 vhcurveto
          hintmask 01011100
          13 -34 -32 15 -32 hhcurveto
          -52 -10 -25 -70 hvcurveto
          endchar
        </CharString>
        <CharString name="aring">
          -80 callsubr
          99 128 callsubr
          hstemhm
          41 35 48 107 callsubr
          18 35 hintmask 0000000000000000
          hintmask 1011111111000000
          214 617 -90 callsubr
          -29 -653 rmoveto
          hintmask 1011111101000000
          -78 callgsubr
          hintmask 0111111101000000
          -107 callgsubr
          hintmask 1011111111000000
          -66 callsubr
          hintmask 1011111101000000
          -74 callsubr
          hintmask 1011111111000000
          -12 callgsubr
        </CharString>
        <CharString name="aringacute">
          -80 callsubr
          99 128 callsubr
          35 138 hstemhm
          41 35 48 107 callsubr
          18 35 hintmask 1011111110100000
          202 829 -101 callgsubr
          hintmask 1011111111100000
          12 -217 -90 callsubr
          -29 -653 rmoveto
          hintmask 1011111110100000
          -78 callgsubr
          hintmask 0111111110100000
          -107 callgsubr
          hintmask 1011111111100000
          -66 callsubr
          hintmask 1011111110100000
          -74 callsubr
          hintmask 1011111111100000
          -12 callgsubr
        </CharString>
        <CharString name="arrowboth">
          79 callgsubr
          310 192 rmoveto
          -43 95 rlineto
          348 hlineto
          -42 -95 125 callgsubr
          -348 hlineto
          43 96 -255 -113 rlineto
          endchar
        </CharString>
        <CharString name="arrowdown">
          -49 688 -20 hstem
          181 34 vstem
          198 -85 rmoveto
          112 255 -95 -43 rlineto
          561 -34 -561 vlineto
          -96 43 rlineto
          endchar
        </CharString>
        <CharString name="arrowdown.ss01">
          -99 171 285 hstem
          30 285 vstem
          173 171 rmoveto
          142 285 rlineto
          -285 hlineto
          endchar
        </CharString>
        <CharString name="arrowleft">
          79 callgsubr
          257 287 rmoveto
          571 34 -571 hlineto
          43 96 -245 -113 245 -112 rlineto
          endchar
        </CharString>
        <CharString name="arrowleft.ss01">
          -81 201 285 hstem
          30 285 vstem
          315 201 rmoveto
          285 vlineto
          -285 -143 rlineto
          endchar
        </CharString>
        <CharString name="arrowright">
          79 callgsubr
          573 192 rmoveto
          125 callgsubr
          -560 -34 560 hlineto
          endchar
        </CharString>
        <CharString name="arrowright.ss01">
          -81 201 285 hstem
          48 285 vstem
          48 201 rmoveto
          285 142 -285 143 rlineto
          endchar
        </CharString>
        <CharString name="arrowup">
          -49 691 -20 hstem
          181 34 vstem
          181 -81 rmoveto
          34 559 hlineto
          95 -42 -112 255 -113 -255 96 42 rlineto
          endchar
        </CharString>
        <CharString name="arrowup.ss01">
          -99 516 -20 hstem
          30 285 vstem
          30 231 rmoveto
          285 hlineto
          -142 285 rlineto
          endchar
        </CharString>
        <CharString name="arrowupdn">
          -49 696 -3 callsubr
          endchar
        </CharString>
        <CharString name="arrowupdnbse">
          -49 -163 34 825 -3 callsubr
          -30 -333 rmoveto
          285 34 -285 hlineto
          endchar
        </CharString>
        <CharString name="asciicircum">
          -21 722 28 hstem
          63 297 vstem
          323 476 rmoveto
          37 hlineto
          -125 274 rlineto
          -47 hlineto
          -125 -274 rlineto
          37 hlineto
          111 246 rlineto
          endchar
        </CharString>
        <CharString name="asciitilde">
          -10 260 -46 callsubr
          66 27 248 27 hintmask 00000000
          hintmask 11110000
          368 355 rmoveto
          -27 hlineto
          -45 -5 -17 -30 -26 -27 12 10 -26 vhcurveto
          hintmask 01110000
          14 -34 -32 15 -33 hhcurveto
          -52 -10 -25 -70 hvcurveto
          27 hlineto
          45 5 17 30 26 28 -13 -11 26 vhcurveto
          hintmask 11110000
          -14 34 32 -13 32 hhcurveto
          52 10 25 70 hvcurveto
          endchar
        </CharString>
        <CharString name="asterisk">
          -41 688 -20 hstem
          185.5 32 vstem
          214 500 rmoveto
          121 -76 19 33 -126 66 125 66 -18 33 -121 -77 7 143 rlineto
          -38 hlineto
          5 -143 -120 77 -19 -33 127 -67 -126 -65 18 -33 120 76 -5 -142 rlineto
          38 hlineto
          endchar
        </CharString>
        <CharString name="asterisk.ss02">
          373 -14 719 hstem
          35 747 vstem
          178 -14 rmoveto
          231 170 231 -170 -90 276 232 174 rlineto
          -288 hlineto
          -85 269 -87 -269 rlineto
          -287 hlineto
          234 -174 rlineto
          endchar
        </CharString>
        <CharString name="at">
          233 -108 31 145 32 -25 30 182 32 167 32 148 30 hstemhm
          66 34 109 35 186 35 111 34 hintmask 1011111111000000
          338 -108 rmoveto
          88 16 0 2 23 hvcurveto
          32 vlineto
          -2 -21 -40 -1 -66 hhcurveto
          -42 -35 2 2 -18 hvcurveto
          -138 15 -5 65 287 vvcurveto
          293 4 62 130 13 vhcurveto
          3 33 32 1 38 hhcurveto
          45 36 -2 -4 33 hvcurveto
          122 -15 3 -68 -283 vvcurveto
          -186 -15 -3 -32 vhcurveto
          -64 253 hlineto
          127 -19 33 -103 -44 -41 -4 -6 -26 vhcurveto
          -33 vlineto
          6 24 48 5 29 hhcurveto
          84 13 -13 -121 hvcurveto
          -37 vlineto
          2 -39 -64 2 -17 hhcurveto
          -79 -22 -32 -94 hvcurveto
          hintmask 1101111111000000
          -104 37 -21 79 40 50 6 65 15 vhcurveto
          4 hlineto
          hintmask 1011111111000000
          4 -64 rlineto
          82 hlineto
          67 23 9 210 349 -3 53 -269 -268 -4 -53 -349 -349 4 -53 268 hvcurveto
          hintmask 1101111111000000
          -14 208 rmoveto
          -65 -15 16 77 83 14 11 58 hvcurveto
          114 -33 hlineto
          -121 -26 -33 -80 vhcurveto
          endchar
        </CharString>
        <CharString name="atilde">
          -80 callsubr
          130 -46 callsubr
          41 35 7 -30 callsubr
          -24 35 hintmask 0000000000000000
          hintmask 1011111010000000
          348 743 rmoveto
          -95 callsubr
          hintmask 1011010101000000
          -102 callsubr
          hintmask 1011111010000000
          -93 callgsubr
          hintmask 1011011001000000
          -163 -751 -52 callsubr
          hintmask 0111011001000000
          -107 callgsubr
          hintmask 1011011001000000
          -95 callgsubr
          endchar
        </CharString>
        <CharString name="b">
          101 callsubr
          hstemhm
          73 35 257 35 hintmask 10111000
          243 -8 rmoveto
          131 26 49 214 214 -25 49 -132 121 callgsubr
          hintmask 01111000
          -743 27 vlineto
          hintmask 10111000
          4 78 rlineto
          4 hlineto
          -76 21 56 -10 58 hhcurveto
          -7 32 rmoveto
          -64 -39 23 56 -13 hvcurveto
          -11 45 -1 47 60 vvcurveto
          62 2 47 11 45 vhcurveto
          53 13 37 24 65 83 callgsubr
        </CharString>
        <CharString name="backslash">
          129 callsubr
          211 -55 rmoveto
          36 hlineto
          -191 798 rlineto
          -36 hlineto
          endchar
        </CharString>
        <CharString name="bar">
          122 callgsubr
          -161 rmoveto
          35 904 -35 hlineto
          endchar
        </CharString>
        <CharString name="bar.ss02">
          54 74 callgsubr
          -1 500 vstem
          -1 hmoveto
          500 696 -500 hlineto
          endchar
        </CharString>
        <CharString name="braceleft">
          -208 282 29 hstem
          23 50 31 35 vstem
          186 -150 rmoveto
          36 hlineto
          -49 38 -34 73 64 vvcurveto
          121 vlineto
          77 -18 54 -48 17 vhcurveto
          5 vlineto
          48 17 18 54 77 vvcurveto
          121 vlineto
          64 34 73 49 38 vhcurveto
          -36 hlineto
          -48 -31 -34 -78 -78 vvcurveto
          -115 vlineto
          -63 -20 -67 -61 vhcurveto
          -29 vlineto
          61 20 -67 -63 hvcurveto
          -115 vlineto
          -78 34 -78 48 -31 vhcurveto
          endchar
        </CharString>
        <CharString name="braceright">
          -208 282 29 hstemhm
          97 35 30 50 hintmask 11000000
          13 -150 rmoveto
          37 hlineto
          48 31 34 78 78 vvcurveto
          115 vlineto
          63 19 67 61 vhcurveto
          hintmask 11100000
          29 vlineto
          hintmask 11000000
          -60 -20 67 63 hvcurveto
          115 vlineto
          78 -34 78 -48 31 vhcurveto
          -37 hlineto
          49 -38 35 -73 -64 vvcurveto
          -121 vlineto
          -77 17 -54 48 -17 vhcurveto
          -5 vlineto
          -48 -17 -17 -54 -77 vvcurveto
          -121 vlineto
          -64 -35 -73 -49 -38 vhcurveto
          endchar
        </CharString>
        <CharString name="bracketleft">
          -216 -150 35 823 35 hstem
          81 35 vstem
          81 -150 rmoveto
          120 33 hlineto
          -85 4 rlineto
          819 vlineto
          85 4 rlineto
          33 -120 vlineto
          endchar
        </CharString>
        <CharString name="bracketleft.ss02">
          28 callsubr
          hvcurveto
          -348 vlineto
          endchar
        </CharString>
        <CharString name="bracketright">
          -216 -150 35 823 35 hstem
          111 35 vstem
          27 -150 rmoveto
          119 893 -119 -33 hlineto
          84 -4 rlineto
          -819 vlineto
          -84 -4 rlineto
          endchar
        </CharString>
        <CharString name="bracketright.ss02">
          -47 74 callgsubr
          0 352 vstem
          0 vmoveto
          352 348 hlineto
          101 callgsubr
          vhcurveto
          endchar
        </CharString>
        <CharString name="breve">
          -224 602 28 hstem
          7 43 callsubr
          214 -70 callgsubr
          endchar
        </CharString>
        <CharString name="brokenbar">
          122 callgsubr
          390 rmoveto
          35 353 -35 hlineto
          -904 vmoveto
          35 353 -35 hlineto
          endchar
        </CharString>
        <CharString name="bullet">
          -152 259 169 hstem
          62 168 vstem
          230 342 rmoveto
          74 -4 12 -82 -78 -4 -12 -74 -71 4 -12 78 82 4 12 71 vhcurveto
          endchar
        </CharString>
        <CharString name="bullet.ss02">
          339 -8 60 155 60 -36 60 105 60 -35 60 155 60 hstemhm
          40 60 155 60 -36 60 105 60 -36 60 155 60 hintmask 0000000000000000
          hintmask 0010111011000000
          392 421 rmoveto
          62 50 39 73 90 -76 73 -36 -37 -76 -73 -90 -73 50 -39 63 hvcurveto
          60 vmoveto
          -30 -23 18 34 57 36 46 17 17 35 -46 -57 -34 -23 -18 -29 hvcurveto
          -189 -250 rmoveto
          hintmask 0011001100000000
          73 39 50 63 62 -39 50 -73 -90 -73 -76 -36 hvcurveto
          hintmask 0010111011000000
          -37 73 -76 90 vhcurveto
          hintmask 0011001100110000
          378 hmoveto
          89 73 76 37 36 -73 76 -89 -74 -39 -50 -62 -63 39 -50 74 hvcurveto
          -378 60 rmoveto
          -57 -46 36 17 17 46 35 57 34 18 -23 -29 -30 -18 -23 -34 hvcurveto
          378 hmoveto
          -35 -18 23 30 29 18 23 35 56 46 -35 -17 -17 -46 -36 -56 hvcurveto
          hintmask 1100000011000000
          -189 -299 rmoveto
          36 76 73 90 73 -50 39 -62 -63 -50 -39 -73 -90 76 -73 37 hvcurveto
          60 vmoveto
          -17 -36 46 57 34 23 18 30 29 23 -18 -34 -57 -35 -46 -17 hvcurveto
          endchar
        </CharString>
        <CharString name="c">
          -91 -31 callgsubr
          hstem
          55 35 vstem
          316 4 -87 callgsubr
        </CharString>
        <CharString name="cacute">
          -91 123 callgsubr
          vstem
          161 605 -101 callgsubr
          155 -606 -87 callgsubr
        </CharString>
        <CharString name="cacute.loclPLK">
          -91 123 callgsubr
          vstem
          161 605 -74 callgsubr
          155 -606 -87 callgsubr
        </CharString>
        <CharString name="caron">
          -225 605 30 hstem
          7 206 vstem
          87 605 -99 callsubr
          endchar
        </CharString>
        <CharString name="caron.loclCSY">
          127 callsubr
          39 vstem
          36 454 7 callgsubr
          endchar
        </CharString>
        <CharString name="ccaron">
          -91 74 callsubr
          30 hstem
          55 35 vstem
          154 605 -99 callsubr
          242 -734 -87 callgsubr
        </CharString>
        <CharString name="ccedilla">
          -91 -8 32 -7 -21 490 32 hstemhm
          55 35 hintmask 10110000
          218 24 rmoveto
          -111 -17 37 195 187 17 43 109 29 40 -5 -7 27 hvcurveto
          33 vlineto
          6 -24 -44 5 -33 hhcurveto
          -127 -29 -52 -212 hvcurveto
          hintmask 01110000
          -164 9 -76 96 -18 vhcurveto
          -54 -181 119 callsubr
          8 9 0 9 hhcurveto
          35 43 5 7 24 hvcurveto
          33 vlineto
          -8 -24 -42 -5 -32 hhcurveto
          endchar
        </CharString>
        <CharString name="ccircumflex">
          -91 -8 132 callgsubr
          vstem
          74 605 rmoveto
          27 hlineto
          76 108 -56 callsubr
          242 -606 -87 callgsubr
        </CharString>
        <CharString name="cdotaccent">
          -91 -31 callgsubr
          151 61 hstem
          55 35 66 41 vstem
          156 669 -39 callsubr
          160 -726 -87 callgsubr
        </CharString>
        <CharString name="cedilla">
          -320 -190 198 hstem
          20 84 vstem
          20 69 callgsubr
        </CharString>
        <CharString name="cent">
          -66 13 -21 75 34 484 34 77 -20 hstem
          58 37 112 34 vstem
          329 115 rmoveto
          -26 -8 -29 -5 -33 -1 rrcurveto
          484 vlineto
          29 -1 32 -4 24 -7 rrcurveto
          35 vlineto
          -22 5 -32 5 -31 1 rrcurveto
          77 -34 -77 vlineto
          -115 -4 -34 -49 -224 vvcurveto
          -199 17 -71 132 -5 vhcurveto
          -75 34 75 vlineto
          38 1 27 6 23 5 rrcurveto
          -234 265 rmoveto
          191 18 44 94 5 vhcurveto
          -483 vlineto
          -95 5 -17 46 192 vvcurveto
          endchar
        </CharString>
        <CharString name="circumflex">
          -225 713 30 hstem
          7 206 vstem
          7 605 rmoveto
          27 hlineto
          76 108 -56 callsubr
          endchar
        </CharString>
        <CharString name="colon">
          -284 0 65 380 65 hstem
          57 46 vstem
          57 126 callsubr
          -510 vmoveto
          46 65 -46 hlineto
          endchar
        </CharString>
        <CharString name="comma">
          -284 -101 21 80 65 hstem
          76 27 vstem
          30 -80 rmoveto
          -60 callsubr
          endchar
        </CharString>
        <CharString name="copyright">
          123 -8 26 136 29 322 29 136 26 hstem
          77 28 90 31 236 28 vstem
          283 -8 rmoveto
          112 callsubr
          112 callgsubr
          hvcurveto
          26 27 callgsubr
          19 136 rmoveto
          19 24 2 3 16 hvcurveto
          29 vlineto
          -3 -15 -22 -2 -18 hhcurveto
          -72 -8 16 145 145 8 16 72 17 22 -2 -3 14 hvcurveto
          28 vlineto
          4 -11 -24 2 -22 hhcurveto
          -91 -16 -24 -166 -169 16 -21 91 hvcurveto
          endchar
        </CharString>
        <CharString name="currency">
          150 13 -21 80 32 481 32 79 -20 hstem
          130 35 264 35 vstem
          78 -8 rmoveto
          103 103 rlineto
          -17 24 37 -6 55 hhcurveto
          55 37 6 18 25 hvcurveto
          103 -104 23 23 -104 103 rlineto
          24 40 4 69 119 vvcurveto
          116 -4 68 -24 39 vhcurveto
          103 104 -22 23 -103 -104 rlineto
          19 -24 -37 6 -56 hhcurveto
          -55 -37 -6 -18 -24 hvcurveto
          -103 103 -23 -23 103 -103 rlineto
          -24 -39 -4 -69 -116 vvcurveto
          -120 4 -69 25 -39 vhcurveto
          -103 -104 rlineto
          241 90 rmoveto
          -128 -4 37 205 201 4 38 128 128 4 -38 -201 -205 -4 -37 -128 hvcurveto
          endchar
        </CharString>
        <CharString name="d">
          101 callsubr
          54 callsubr
          hintmask 10111000
          0 callsubr
          hintmask 01111000
          -54 callsubr
          hintmask 10111000
          -214 25 -49 132 vhcurveto
          7 32 -77 callsubr
          endchar
        </CharString>
        <CharString name="dagger">
          -125 21 -21 469 30 189 -20 hstem
          142 31 vstem
          145 hmoveto
          25 hlineto
          6 466 128 callgsubr
          -6 186 rlineto
          -25 hlineto
          -6 -186 102 callgsubr
          endchar
        </CharString>
        <CharString name="daggerdbl">
          -125 21 -21 189 30 250 30 189 -20 hstemhm
          139 37 -34 31 hintmask 11110100
          145 hmoveto
          hintmask 11111000
          25 hlineto
          6 186 128 callgsubr
          rlineto
          244 vlineto
          128 callgsubr
          rlineto
          hintmask 11110100
          -6 186 rlineto
          hintmask 11111000
          -25 hlineto
          -6 -186 102 callgsubr
          -244 vlineto
          102 callgsubr
          endchar
        </CharString>
        <CharString name="dcaron">
          101 callsubr
          170 -20 54 callsubr
          50 39 hintmask 10111110
          0 callsubr
          hintmask 01111110
          -54 callsubr
          hintmask 10111110
          -214 25 -49 132 vhcurveto
          208 462 7 callgsubr
          -213 -575 -77 callsubr
          endchar
        </CharString>
        <CharString name="dcroat">
          101 callsubr
          138 32 54 callsubr
          hintmask 10111100
          441 688 rmoveto
          -59 55 -35 -55 -128 -32 128 -215 -15 callsubr
          -214 25 -49 132 58 56 10 76 21 hvcurveto
          4 hlineto
          hintmask 01111100
          3 -78 rlineto
          28 656 59 hlineto
          hintmask 10111100
          -106 -556 rmoveto
          -53 -13 -39 -23 -64 hhcurveto
          -67 callgsubr
          108 69 37 -24 -62 16 hvcurveto
          8 -36 2 -47 -48 vvcurveto
          -74 -1 -47 -11 -48 vhcurveto
          endchar
        </CharString>
        <CharString name="degree">
          -133 397 31 237 31 hstem
          57 34 130 34 vstem
          156 32 callsubr
          31 vmoveto
          -65 0 22 96 96 0 23 65 65 0 -23 -96 -96 0 -22 -65 hvcurveto
          endchar
        </CharString>
        <CharString name="dialog">
          361 73 callsubr
          59 60 567 60 vstem
          306 -212 rmoveto
          213 212 rlineto
          227 688 -687 -688 247 60 -187 568 567 -568 -192 hlineto
          -188 -187 rlineto
          endchar
        </CharString>
        <CharString name="dieresis">
          -181 669 61 hstem
          24 36 callsubr
          vstem
          24 669 -87 callsubr
          endchar
        </CharString>
        <CharString name="divide">
          42 54 55 128 32 128 55 hstem
          222 42 vstem
          222 397 rmoveto
          42 55 -42 hlineto
          -159 -215 63 callsubr
          159 -215 rmoveto
          42 55 -42 hlineto
          endchar
        </CharString>
        <CharString name="dollar">
          -24 13 -21 76 32 224.5 35.5 -24.5 35 214.5 35 76 -20 hstemhm
          60 36 101 34 93 36 hintmask 1101111110000000
          360 215 rmoveto
          hintmask 1110111110000000
          109 -17 23 -69 10 vhcurveto
          -43 6 rlineto
          222 vlineto
          36 -1 44 -5 29 -6 rrcurveto
          34 vlineto
          -26 7 -44 5 -39 1 rrcurveto
          76 -34 -77 vlineto
          -92 -4 -45 -34 -113 vvcurveto
          hintmask 1101111110000000
          -87 19 -33 69 -9 vhcurveto
          49 -7 rlineto
          -232 vlineto
          -51 1 -40 4 -34 8 rrcurveto
          -34 vlineto
          30 -7 51 -3 44 -1 rrcurveto
          -76 34 76 vlineto
          86 4 43 33 110 vvcurveto
          -204 158 rmoveto
          -45 6 -15 11 86 vvcurveto
          91 41 17 60 2 vhcurveto
          -218 vlineto
          34 -267 rmoveto
          hintmask 1110111110000000
          226 vlineto
          36 -5 rlineto
          43 -5 14 -7 -95 vvcurveto
          hintmask 1101111110000000
          -82 -24 -29 -69 -3 vhcurveto
          endchar
        </CharString>
        <CharString name="dotaccent">
          -361 669 61 hstem
          21 41 vstem
          21 669 -39 callsubr
          endchar
        </CharString>
        <CharString name="dotbelowcomb">
          -127 65 hstem
          -103 46 vstem
          -103 -127 -81 callgsubr
        </CharString>
        <CharString name="dotlessi">
          -18 callsubr
          hstem
          73 35 vstem
          73 hmoveto
          -14 callgsubr
          endchar
        </CharString>
        <CharString name="e">
          -45 callgsubr
          65 callgsubr
          376 256 -106 callgsubr
          endchar
        </CharString>
        <CharString name="eacute">
          60 callsubr
          304 738 -64 callgsubr
          147 -349 -106 callgsubr
          endchar
        </CharString>
        <CharString name="ebreve">
          -45 callgsubr
          84 28 hstemhm
          55 35 21 -44 callgsubr
          23 35 hintmask 00000000
          hintmask 11111111
          214 602 rmoveto
          103 1 59 82 hvcurveto
          -32 hlineto
          -75 -2 -38 -70 -70 -1 38 75 vhcurveto
          -32 hlineto
          -82 0 -59 103 vhcurveto
          hintmask 11111001
          162 -346 -106 callgsubr
          endchar
        </CharString>
        <CharString name="ecaron">
          -45 callgsubr
          87 30 65 callgsubr
          238 605 rmoveto
          80 -57 callgsubr
          -27 vlineto
          -76 -108 -76 108 rlineto
          -27 -5 hlineto
          80 -80 callgsubr
          184 -349 -106 callgsubr
          endchar
        </CharString>
        <CharString name="ecircumflex">
          110 callsubr
          65 callgsubr
          217 713 -69 callgsubr
          235 -349 -106 callgsubr
          endchar
        </CharString>
        <CharString name="edieresis">
          -45 callgsubr
          151 61 hstemhm
          55 35 21 36 callsubr
          15 35 hintmask 00000000
          hintmask 11111111
          153 730 38 callsubr
          hintmask 11111001
          50 -413 -106 callgsubr
          endchar
        </CharString>
        <CharString name="edotaccent">
          -45 callgsubr
          151 61 hstem
          55 35 104 41 106 35 vstem
          235 730 rmoveto
          -41 -61 41 hlineto
          141 -413 -106 callgsubr
          endchar
        </CharString>
        <CharString name="egrave">
          60 callsubr
          240 605 -52 callgsubr
          160 -349 -106 callgsubr
          endchar
        </CharString>
        <CharString name="eight">
          47 103 callsubr
          hstemhm
          58 36 -31 36 293 36 -31 36 hintmask 11110010
          246 47 callsubr
          26 48 100 vvcurveto
          128 -36 -18 callgsubr
          25 -34 -115 -115 -28 4 callsubr
        </CharString>
        <CharString name="eight.dnom">
          -146 -4 30 150 30 146 30 hstemhm
          35 42 callgsubr
          hintmask 11110010
          149 -4 8 callsubr
          hintmask 11101100
          -49 callgsubr
          hintmask 11110010
          19 callsubr
          hintmask 11101100
          -41 callsubr
          hintmask 11110010
          -60 callgsubr
        </CharString>
        <CharString name="eight.numr">
          -146 304 30 150 30 -12 12 146 30 hstemhm
          35 42 callgsubr
          hintmask 11011001
          149 304 rmoveto
          95 19 33 72 hvcurveto
          hintmask 10111001
          65 -19 16 -37 10 vhcurveto
          2 vlineto
          hintmask 10110110
          -49 callgsubr
          hintmask 10111001
          -36 -10 -19 -16 -65 vvcurveto
          hintmask 11011001
          -72 19 -33 95 vhcurveto
          hintmask 11010110
          -41 callsubr
          hintmask 11011001
          -60 callgsubr
        </CharString>
        <CharString name="eight.tnum">
          41 103 callsubr
          hstemhm
          55 36 -31 36 294 36 -32 36 hintmask 11110010
          243 47 callsubr
          27 48 100 vvcurveto
          128 -37 -18 callgsubr
          26 -34 -115 -115 -29 4 callsubr
        </CharString>
        <CharString name="ellipsis">
          36 0 65 hstem
          57 46 114 45 115 45 vstem
          57 hmoveto
          46 65 -46 hlineto
          160 -65 31 callgsubr
          160 -65 31 callgsubr
          endchar
        </CharString>
        <CharString name="emacron">
          -45 callgsubr
          189 36 hstem
          55 35 33 184 34 35 vstem
          307 743 127 callgsubr
          69 -451 -106 callgsubr
          endchar
        </CharString>
        <CharString name="emdash">
          380 287 34 hstem
          62 700 vstem
          62 287 rmoveto
          700 34 -700 hlineto
          endchar
        </CharString>
        <CharString name="endash">
          -21 287 34 hstem
          62 299 vstem
          62 287 rmoveto
          299 34 -299 hlineto
          endchar
        </CharString>
        <CharString name="eng">
          57 callgsubr
          244 518 rmoveto
          -96 -28 -42 -44 -12 hvcurveto
          -4 hlineto
          hintmask 11011100
          -49 callsubr
          hintmask 11101100
          -73 callsubr
          -421 vlineto
          -45 -6 -12 -68 vhcurveto
          -30 vlineto
          75 34 5 92 hvcurveto
          416 vlineto
          -26 callsubr
          vhcurveto
          endchar
        </CharString>
        <CharString name="eogonek">
          -14 104 callgsubr
          -11 callgsubr
          hstem
          55 35 167 34 50 35 vstem
          376 256 rmoveto
          204 -9 58 -142 -164 -6 -65 -199 -210 22 -52 148 30 35 2 4 27 vhcurveto
          -35 -36 -25 -47 -41 vvcurveto
          -38 21 -32 -56 callgsubr
          -35 -12 21 24 43 40 57 30 24 hvcurveto
          -100 callsubr
          endchar
        </CharString>
        <CharString name="equal">
          109 callsubr
          63 327 63 callsubr
          -212 vmoveto
          360 32 -360 hlineto
          endchar
        </CharString>
        <CharString name="estimated">
          82 -8 34 297 34 305 34 hstemhm
          63 36 325 36 -33 36 hintmask 11110100
          99 323 rmoveto
          364 21 hlineto
          307 -18 45 -182 -183 -17 -45 -307 -307 17 -45 183 vhcurveto
          hintmask 11111000
          149 39 30 178 9 hvcurveto
          -36 hlineto
          -166 -9 -35 -8 -117 hhcurveto
          hintmask 11110100
          -141 -22 11 286 -1 hvcurveto
          164 339 rmoveto
          142 21 -12 -293 1 hvcurveto
          -328 hlineto
          293 1 21 12 142 hhcurveto
          endchar
        </CharString>
        <CharString name="eth">
          -22 callsubr
          177 -20 76 callgsubr
          34 -1 42 -5 51 hvcurveto
          -8 83 -28 95 -35 69 62 10 rcurveline
          32 vlineto
          -79 -13 -18 28 -18 20 -11 13 rlinecurve
          -41 -4 hlineto
          13 -15 18 -21 19 -28 -86 -13 rcurveline
          -32 vlineto
          104 17 26 -48 20 -55 15 -60 rlinecurve
          -5 -2 rlineto
          -13 callsubr
        </CharString>
        <CharString name="exclam">
          -272 78 callgsubr
          hintmask 11010000
          72 173 rmoveto
          -34 callgsubr
          hintmask 11100000
          -8 -173 31 callgsubr
          endchar
        </CharString>
        <CharString name="exclam.case">
          -272 78 callgsubr
          hintmask 11010000
          72 173 rmoveto
          -34 callgsubr
          hintmask 11100000
          -8 -173 31 callgsubr
          endchar
        </CharString>
        <CharString name="exclam.ss02">
          350 -8 45 72 82 460 45 hstem
          45 45 273 68 273 45 vstem
          397 -8 rmoveto
          194 158 158 194 194 -158 158 -194 -194 -158 -158 -194 -194 158 -158 194 hvcurveto
          45 vmoveto
          -169 -138 138 169 169 138 138 169 169 138 -138 -169 -169 -138 -138 -169 hvcurveto
          -20 231 rmoveto
          40 hlineto
          8 55 6 88 69 vvcurveto
          99 -68 -99 vlineto
          -69 6 -88 8 -55 vhcurveto
          -14 -159 rmoveto
          68 82 -68 hlineto
          endchar
        </CharString>
        <CharString name="exclamdbl">
          -112 78 callgsubr
          118 45 -41 38 hintmask 11010100
          72 173 rmoveto
          -34 callgsubr
          160 hmoveto
          -34 callgsubr
          hintmask 11101000
          -168 -173 31 callgsubr
          159 -65 31 callgsubr
          endchar
        </CharString>
        <CharString name="exclamdown">
          -272 445 65 hstemhm
          64 45 -42 38 hintmask 00000000
          hintmask 11000000
          64 445 31 callgsubr
          hintmask 10100000
          16 callsubr
        </CharString>
        <CharString name="exclamdown.case">
          -272 21 -21 515 -20 128 65 hstemhm
          64 45 -42 38 hintmask 00000000
          hintmask 11110000
          64 623 31 callgsubr
          hintmask 11101000
          16 callsubr
        </CharString>
        <CharString name="f">
          -183 62 callgsubr
          vstem
          102 hmoveto
          -62 callsubr
          endchar
        </CharString>
        <CharString name="f_f">
          79 62 callgsubr
          226 35 vstem
          102 hmoveto
          -62 callsubr
          261 -478 rmoveto
          -62 callsubr
          endchar
        </CharString>
        <CharString name="fi">
          -1 67 callgsubr
          172 61 -30 30 hstemhm
          102 35 194 41 -38 35 hintmask 11011010
          102 hmoveto
          -62 callsubr
          hintmask 11101100
          229 204 -39 callsubr
          hintmask 11011010
          3 -743 -33 callgsubr
        </CharString>
        <CharString name="five">
          -8 -8 34 334 34 260 34 hstem
          66 36 248 36 vstem
          60 38 rmoveto
          -32 vlineto
          -8 40 60 -6 42 120 callsubr
          -153 -45 -42 -4 -7 -27 113 callsubr
          52 77 callsubr
          -58 5 7 -50 hvcurveto
          endchar
        </CharString>
        <CharString name="five.dnom">
          -178 -4 85 callsubr
          32 -23 callsubr
        </CharString>
        <CharString name="five.numr">
          -178 304 85 callsubr
          340 -23 callsubr
        </CharString>
        <CharString name="five.tnum">
          41 -8 34 334 34 260 34 hstem
          88 36 249 36 vstem
          82 38 rmoveto
          -32 vlineto
          -8 41 59 -6 43 120 callsubr
          -154 -44 -42 -4 -7 -28 113 callsubr
          53 77 callsubr
          -59 5 7 -50 hvcurveto
          endchar
        </CharString>
        <CharString name="fiveeighths">
          237 89 callgsubr
          98 30 18 30 117 30 126 30 3 -20 hstemhm
          40 31 132 33 183 42 callgsubr
          hintmask 0000000000000000
          hintmask 0111110111100100
          143 hmoveto
          1 callgsubr
          -436 -348 rmoveto
          103 callgsubr
          92 20 32 87 70 -12 36 -88 -24 -26 -2 -3 -15 hvcurveto
          hintmask 1011111011100100
          131 144 30 -175 -193 vlineto
          5 28 29 2 16 hhcurveto
          75 15 -10 -71 -64 -14 -20 -69 hvcurveto
          hintmask 0111110111100100
          -20 -35 3 3 -29 hvcurveto
          hintmask 1010111011100100
          497 -344 8 callsubr
          hintmask 1010111011011000
          -49 callgsubr
          hintmask 1010111011100100
          19 callsubr
          hintmask 1010111011011000
          -41 callsubr
          hintmask 1010111011100100
          -60 callgsubr
        </CharString>
        <CharString name="fl">
          -1 62 callgsubr
          197 35 vstem
          102 hmoveto
          -62 callsubr
          232 -478 rmoveto
          35 743 -35 hlineto
          endchar
        </CharString>
        <CharString name="florin">
          -163 -190 30 638 32 203 30 hstemhm
          -123 431 -182.5 36 hintmask 11110000
          301 713 rmoveto
          7 30 rlineto
          hintmask 11101000
          -87 -49 -9 -210 -45 hvcurveto
          -3 -14 rlineto
          -79 hlineto
          -7 -32 rlineto
          79 hlineto
          -114 -541 rlineto
          -82 -18 -24 -15 -77 hhcurveto
          -7 -30 rlineto
          87 48 9 193 41 hvcurveto
          99 466 rlineto
          99 hlineto
          7 32 rlineto
          -99 hlineto
          5 24 rlineto
          hintmask 11110000
          164 35 25 15 77 hhcurveto
          endchar
        </CharString>
        <CharString name="four">
          22 113 callgsubr
          310 35 vstem
          309 hmoveto
          36 176 79 34 -79 300 -35 -300 -233 hlineto
          196 478 rlineto
          -38 hlineto
          -197 -481 rlineto
          -31 271 vlineto
          endchar
        </CharString>
        <CharString name="four.dnom">
          -163 0 122 -31 31 hstemhm
          133 callgsubr
          hintmask 00000000
          hintmask 10100000
          180 hmoveto
          33 hlineto
          hintmask 01100000
          91 45 31 -45 147 -28 vlineto
          29 callgsubr
        </CharString>
        <CharString name="four.numr">
          -163 399 31 hstem
          133 callgsubr
          vstem
          180 308 rmoveto
          33 91 45 31 -45 147 -28 hlineto
          29 callgsubr
        </CharString>
        <CharString name="four.ss01">
          22 21 -21 176 34 478 -20 hstem
          310 35 vstem
          345 210 rmoveto
          478 -35 vlineto
          -272 -481 rlineto
          -31 271 -176 36 176 79 34 vlineto
          -346 hmoveto
          232 403 rlineto
          -403 vlineto
          endchar
        </CharString>
        <CharString name="four.tnum">
          41 113 callgsubr
          329 35 vstem
          328 hmoveto
          36 176 80 34 -80 300 -35 -300 -246 hlineto
          210 478 rlineto
          -39 hlineto
          -210 -481 rlineto
          -31 284 vlineto
          endchar
        </CharString>
        <CharString name="fraction">
          -326 89 callsubr
          -123 363 vstem
          -123 hmoveto
          1 callgsubr
          endchar
        </CharString>
        <CharString name="g">
          -38 callgsubr
          54 callsubr
          hintmask 11101100
          202 -199 10 callgsubr
          hintmask 11011100
          431 -28 vlineto
          hintmask 11101100
          -98 callsubr
        </CharString>
        <CharString name="g_tilde.loclGUA">
          -38 callgsubr
          158 -46 callsubr
          55 35 5 -30 callsubr
          -13 35 hintmask 0000000000000000
          hintmask 1110111010000000
          360 743 rmoveto
          -95 callsubr
          hintmask 1110010101000000
          -102 callsubr
          hintmask 1110111010000000
          -93 callgsubr
          hintmask 1101011001000000
          -158 -942 10 callgsubr
          431 -28 vlineto
          hintmask 1110011001000000
          -3 -78 rlineto
          -4 hlineto
          76 -21 -56 10 -58 hhcurveto
          -132 -25 -49 -214 -214 25 -49 132 71 43 21 56 17 hvcurveto
          4 -8 hlineto
          -180 -17 -48 -132 -42 -54 2 3 -37 vhcurveto
          -33 vlineto
          hintmask 1101011001000000
          -3 41 53 -1 43 hhcurveto
          hintmask 1110011001000000
          17 223 -40 callgsubr
          112 64 39 -23 -65 16 hvcurveto
          8 -36 1 -47 -60 vvcurveto
          -62 -2 -47 -10 -41 vhcurveto
          -57 -14 -37 -24 -65 hhcurveto
          endchar
        </CharString>
        <CharString name="gbreve">
          -38 callgsubr
          112 28 hstemhm
          55 35 34 -44 callgsubr
          16 35 hintmask 0000000000000000
          hintmask 1110111110000000
          331 -70 callgsubr
          -129 -942 rmoveto
          hintmask 1101111010000000
          157 23 68 210 hvcurveto
          431 -28 vlineto
          hintmask 1110111010000000
          -3 -78 rlineto
          -4 hlineto
          76 -21 -56 10 -58 hhcurveto
          -132 -25 -49 -214 -214 25 -49 132 71 43 21 56 17 hvcurveto
          4 -8 hlineto
          -180 -17 -48 -132 -42 -54 2 3 -37 vhcurveto
          -33 vlineto
          hintmask 1110111110000000
          -3 41 53 -1 43 hhcurveto
          hintmask 1110111010000000
          17 223 -40 callgsubr
          112 64 39 -23 -65 16 hvcurveto
          8 -36 1 -47 -60 vvcurveto
          -62 -2 -47 -10 -41 vhcurveto
          -57 -14 -37 -24 -65 hhcurveto
          endchar
        </CharString>
        <CharString name="gcaron">
          -38 callgsubr
          115 30 54 callsubr
          hintmask 11101110
          205 605 -99 callsubr
          77 -937 10 callgsubr
          hintmask 11011110
          431 -28 vlineto
          hintmask 11101110
          -98 callsubr
        </CharString>
        <CharString name="gcircumflex">
          -38 callgsubr
          223 30 54 callsubr
          hintmask 11101110
          125 605 rmoveto
          27 hlineto
          76 108 -56 callsubr
          77 -809 10 callgsubr
          hintmask 11011110
          431 -28 vlineto
          hintmask 11101110
          -98 callsubr
        </CharString>
        <CharString name="gcommaaccent">
          -38 callgsubr
          116 65 80 21 hstemhm
          55 35 114 26 117 35 hintmask 1110111110000000
          276 50 callgsubr
          -74 -950 10 callgsubr
          hintmask 1101111110000000
          431 -28 vlineto
          hintmask 1110111110000000
          -98 callsubr
        </CharString>
        <CharString name="gdotaccent">
          -38 callgsubr
          179 61 hstemhm
          55 35 116 41 100 35 hintmask 11101111
          206 669 -39 callsubr
          -4 -929 10 callgsubr
          hintmask 11011111
          431 -28 vlineto
          hintmask 11101111
          -98 callsubr
        </CharString>
        <CharString name="germandbls">
          25 0 32 394 32 260 32 hstemhm
          73 34 116 91 56 35 -28 35 hintmask 11111010
          255 hmoveto
          135 22 60 185 133 -33 52 -65 13 hvcurveto
          4 vlineto
          hintmask 11111100
          63 12 28 37 88 vvcurveto
          124 -46 42 -117 -120 -49 -50 -149 vhcurveto
          -551 34 555 vlineto
          127 39 36 94 99 31 -34 -98 -91 -32 -37 -85 vhcurveto
          -30 -32 30 hlineto
          hintmask 11111010
          95 29 -42 -148 -183 -16 -21 -120 hvcurveto
          -47 -32 hlineto
          endchar
        </CharString>
        <CharString name="grave">
          -332 605 138 hstem
          7 99 vstem
          82 605 -89 callgsubr
          endchar
        </CharString>
        <CharString name="gravecomb">
          605 138 hstem
          -105 99 vstem
          -30 605 -89 callgsubr
          endchar
        </CharString>
        <CharString name="gravecomb.case">
          750 138 hstem
          -105 99 vstem
          -30 750 -89 callgsubr
          endchar
        </CharString>
        <CharString name="greater">
          43 66 374 hstem
          393 30 vstem
          63 66 32 callgsubr
          endchar
        </CharString>
        <CharString name="greaterequal">
          43 30 32 hstem
          393 30 vstem
          63 187 32 callgsubr
          1 -194 63 callsubr
          endchar
        </CharString>
        <CharString name="guillemotleft">
          -101 510 -20 hstem
          36 247 57 callsubr
          217 -205 rmoveto
          30 hlineto
          -87 205 87 206 rlineto
          -30 hlineto
          -99 -206 rlineto
          endchar
        </CharString>
        <CharString name="guillemotright">
          -101 510 -20 hstem
          60 246 61 callgsubr
          31 -205 rmoveto
          29 hlineto
          99 205 -99 206 rlineto
          -29 hlineto
          87 -206 rlineto
          endchar
        </CharString>
        <CharString name="guilsinglleft">
          -219 510 -20 hstem
          36 129 57 callsubr
          endchar
        </CharString>
        <CharString name="guilsinglright">
          -219 510 -20 hstem
          60 129 61 callgsubr
          endchar
        </CharString>
        <CharString name="h">
          14 66 callgsubr
          hstem
          73 35 244 -5 callsubr
          endchar
        </CharString>
        <CharString name="hbar">
          14 66 callgsubr
          138 32 hstem
          66 callsubr
          vstem
          244 518 rmoveto
          -96 -26 -43 -31 -10 hvcurveto
          -4 212 128 32 -128 55 -35 -55 -59 -32 59 -656 35 264 hlineto
          -73 callsubr
          -315 35 320 vlineto
          -26 callsubr
          vhcurveto
          endchar
        </CharString>
        <CharString name="hcircumflex">
          14 66 callgsubr
          373 30 hstem
          66 callsubr
          vstem
          -12 783 rmoveto
          27 hlineto
          76 108 -56 callsubr
          364 -788 rmoveto
          63 callgsubr
          -26 -43 -31 -10 vhcurveto
          -4 299 -35 -743 35 264 hlineto
          -47 callgsubr
        </CharString>
        <CharString name="hookabovecomb">
          609 55 87 28 hstem
          -143 28 71 31 vstem
          -143 609 rmoveto
          28 hlineto
          21 2 3 39 12 vhcurveto
          -99 callgsubr
          endchar
        </CharString>
        <CharString name="hookabovecomb.case">
          880 27 hstem
          -143 28 71 31 vstem
          -143 738 rmoveto
          28 hlineto
          21 2 2 39 12 vhcurveto
          -94 callgsubr
          endchar
        </CharString>
        <CharString name="house">
          77 0 33 623 39 0 -20 hstemhm
          36 36 376 36 hintmask 10111000
          36 hmoveto
          448 375 hlineto
          -208 320 rlineto
          -32 hlineto
          -208 -320 rlineto
          36 -342 rmoveto
          335 vlineto
          hintmask 11011000
          189 288 187 -288 rlineto
          -335 vlineto
          endchar
        </CharString>
        <CharString name="hungarumlaut">
          -172 609 125 hstem
          22 228 vstem
          22 609 -82 callsubr
          endchar
        </CharString>
        <CharString name="hyphen">
          46 callsubr
        </CharString>
        <CharString name="i">
          -18 callsubr
          192 61 callsubr
          682 -39 callsubr
          hintmask 11101000
          3 -743 -33 callgsubr
        </CharString>
        <CharString name="i.loclTRK">
          -18 callsubr
          179 61 callsubr
          669 -39 callsubr
          hintmask 11101000
          3 -730 -33 callgsubr
        </CharString>
        <CharString name="iacute">
          -263 21 -21 22 callsubr
          hstem
          73 35 vstem
          72 605 -101 callgsubr
          1 -610 -33 callgsubr
        </CharString>
        <CharString name="iacute_j.loclNLD">
          -81 -193 30 184 -21 22 callsubr
          hstem
          73 35 146 35 vstem
          76 605 -101 callgsubr
          181 -5 -101 callgsubr
          -184 -610 rmoveto
          -14 callgsubr
          107 -703 rmoveto
          -63 callgsubr
        </CharString>
        <CharString name="ibreve">
          -18 callsubr
          112 28 hstem
          -13 32 54 35 54 32 vstem
          194 -70 callgsubr
          -121 -743 -33 callgsubr
        </CharString>
        <CharString name="icircumflex">
          -18 callsubr
          223 30 hstem
          73 35 vstem
          -12 605 rmoveto
          27 hlineto
          76 108 -56 callsubr
          85 -610 -33 callgsubr
        </CharString>
        <CharString name="idieresis">
          -18 callsubr
          179 61 hstem
          -17 42 48 35 48 42 vstem
          -17 669 -87 callsubr
          -83 -730 -33 callgsubr
        </CharString>
        <CharString name="igrave">
          -263 21 -21 22 callsubr
          hstem
          73 35 vstem
          86 605 -89 callgsubr
          62 -738 -33 callgsubr
        </CharString>
        <CharString name="ij">
          93 callgsubr
          70 41 -38 35 143 41 -38 35 hintmask 00000000
          hintmask 11111010
          70 682 -39 callsubr
          181 -61 -39 callsubr
          hintmask 11110101
          -178 -743 rmoveto
          -14 callgsubr
          107 -703 rmoveto
          -63 callgsubr
        </CharString>
        <CharString name="imacron">
          -18 callsubr
          217 36 hstemhm
          -1 184 -110 35 hintmask 00000000
          hintmask 11110000
          -1 707 -58 callsubr
          hintmask 11101000
          74 -743 -33 callgsubr
        </CharString>
        <CharString name="infinity">
          351 57 32 334 32 hstem
          57 35 611 35 vstem
          215 57 rmoveto
          112 43 67 78 27 hvcurveto
          -78 28 43 -67 112 hhcurveto
          125 33 71 128 127 -33 72 -125 -112 -43 -68 -77 -28 hvcurveto
          77 -27 -43 68 -112 hhcurveto
          -125 -33 -72 -127 -128 33 -71 125 hvcurveto
          32 vmoveto
          -100 -23 63 104 104 23 63 100 106 35 -81 -86 23 hvcurveto
          -86 -23 -35 -81 -106 hhcurveto
          365 hmoveto
          -105 -36 81 86 -23 hvcurveto
          86 23 36 81 105 hhcurveto
          100 23 -63 -104 -104 -23 -63 -100 hvcurveto
          endchar
        </CharString>
        <CharString name="integral">
          -105 -190 30 826 30 hstemhm
          128 36 5 35 hintmask 11010000
          67 -190 rmoveto
          83 54 6 83 4 0 5 -4 71 hvcurveto
          hintmask 11100000
          -35 597 rlineto
          -1 20 0 9 5 vvcurveto
          44 23 12 79 vhcurveto
          30 vlineto
          -83 -55 -7 -82 -6 0 -7 1 -21 hvcurveto
          hintmask 11010000
          36 -597 4 -80 rlineto
          -44 -23 -12 -79 vhcurveto
          endchar
        </CharString>
        <CharString name="iogonek">
          -263 -196 32 185 -42 callgsubr
          179 61 hstemhm
          11 34 25 41 -38 35 hintmask 00000000
          hintmask 11110100
          70 730 rmoveto
          -61 41 61 vlineto
          hintmask 11111010
          -66 -848 rmoveto
          hintmask 11110010
          40 36 55 27 23 vhcurveto
          510 -35 -510 vlineto
          hintmask 11111010
          -36 -35 -26 -49 -40 vvcurveto
          -41 21 -31 -56 callgsubr
          -35 -12 20 26 hvcurveto
          endchar
        </CharString>
        <CharString name="itilde">
          -18 callsubr
          158 -46 callsubr
          -41 27 87 35 89 27 hintmask 00000000
          hintmask 11111110
          224 743 -20 callsubr
          -151 -743 -33 callgsubr
        </CharString>
        <CharString name="j">
          102 callsubr
          192 61 callsubr
          682 -39 callsubr
          -71 -936 rmoveto
          hintmask 11101000
          -63 callgsubr
        </CharString>
        <CharString name="jcircumflex">
          102 callsubr
          223 30 hstem
          73 35 vstem
          -12 605 rmoveto
          27 hlineto
          76 108 -56 callsubr
          11 -803 rmoveto
          -63 callgsubr
        </CharString>
        <CharString name="k">
          -49 21 132 callsubr
          -7 callgsubr
          466 -35 -743 35 243 69 hlineto
          endchar
        </CharString>
        <CharString name="kcommaaccent">
          -49 -10 callsubr
          83 132 callsubr
          100 26 -7 callgsubr
          466 -35 -743 35 243 69 hlineto
          -15 -450 -82 callgsubr
          endchar
        </CharString>
        <CharString name="kgreenlandic">
          -49 21 132 callsubr
          -7 callgsubr
          233 -35 -510 35 243 69 hlineto
          endchar
        </CharString>
        <CharString name="l">
          -263 21 -21 hstem
          73 35 vstem
          65 callsubr
          endchar
        </CharString>
        <CharString name="lacute">
          -263 21 -21 783 138 hstem
          73 35 vstem
          76 783 -101 callgsubr
          -3 -788 rmoveto
          35 743 -35 hlineto
          endchar
        </CharString>
        <CharString name="lcaron">
          -263 89 callsubr
          73 35 51 39 vstem
          65 callsubr
          74 -289 7 callgsubr
          endchar
        </CharString>
        <CharString name="lcommaaccent">
          -263 -10 callsubr
          83 -21 hstemhm
          73 35 -7 26 hintmask 11110000
          65 callsubr
          hintmask 11101000
          -18 -950 rmoveto
          -21 vlineto
          59 13 19 72 hvcurveto
          75 vlineto
          hintmask 11110000
          -46 -65 hlineto
          hintmask 11101000
          17 callgsubr
          endchar
        </CharString>
        <CharString name="ldot">
          -237 21 -21 267 65 hstem
          73 35 62 45 vstem
          65 callsubr
          97 -476 31 callgsubr
          endchar
        </CharString>
        <CharString name="leftOpenDialog">
          181 73 callsubr
          0 60 vstem
          626 628 rmoveto
          60 -566 vlineto
          -60 -688 59 hlineto
          567 60 -566 568 hlineto
          endchar
        </CharString>
        <CharString name="less">
          43 66 374 hstem
          64 31 vstem
          424 66 48 callsubr
          endchar
        </CharString>
        <CharString name="lessequal">
          43 30 32 hstem
          64 31 vstem
          424 187 48 callsubr
          -321 vmoveto
          359 32 -359 hlineto
          endchar
        </CharString>
        <CharString name="logicalnot">
          41 238 34 hstem
          388 34 vstem
          388 73 rmoveto
          34 199 -359 -34 325 hlineto
          endchar
        </CharString>
        <CharString name="longs">
          -202 62 callgsubr
          vstem
          102 hmoveto
          35 631 hlineto
          67 22 15 77 vhcurveto
          30 vlineto
          -87 -47 -12 -106 hvcurveto
          -115 -79 -32 79 vlineto
          endchar
        </CharString>
        <CharString name="lozenge">
          -13 0 36 617 36 hstem
          54 323 vstem
          195 hmoveto
          41 hlineto
          141 344 -141 345 rlineto
          -41 hlineto
          -141 -345 rlineto
          162 -308 rmoveto
          -126 308 126 309 125 -309 rlineto
          endchar
        </CharString>
        <CharString name="lslash">
          -259 21 -21 hstem
          73 35 vstem
          73 hmoveto
          35 346 hlineto
          58 21 rlineto
          35 vlineto
          -58 -21 rlineto
          362 -35 -375 vlineto
          -54 -19 rlineto
          -35 vlineto
          54 19 rlineto
          endchar
        </CharString>
        <CharString name="m">
          257 66 callgsubr
          -8 -20 hstemhm
          73 35 226 35 226 35 hintmask 11011100
          595 hmoveto
          35 320 hlineto
          145 -18 53 -116 -89 -30 -42 -44 -10 vhcurveto
          -5 hlineto
          62 -14 -31 24 -82 hhcurveto
          -90 -26 -43 -43 -10 hvcurveto
          -5 hlineto
          hintmask 10111100
          -49 callsubr
          hintmask 11011100
          123 1 99 121 89 15 -23 -148 vhcurveto
          -315 35 264 vlineto
          134 0 88 122 89 15 -23 -148 vhcurveto
          endchar
        </CharString>
        <CharString name="macron">
          46 callgsubr
        </CharString>
        <CharString name="minus">
          42 237 32 hstem
          63 360 vstem
          63 237 63 callsubr
          endchar
        </CharString>
        <CharString name="minute">
          127 callsubr
          43 vstem
          40 394 51 callgsubr
          endchar
        </CharString>
        <CharString name="multiply">
          -21 104 297 hstem
          63 297 vstem
          212 230 rmoveto
          125 -126 23 23 -125 125 125 126 -22 23 -125 -126 -127 126 -23 -23 127 -126 -126 -125 23 -22 rlineto
          endchar
        </CharString>
        <CharString name="n">
          14 21 111 callsubr
          hintmask 11011000
          352 hmoveto
          -68 callgsubr
          hintmask 10111000
          -49 callsubr
          hintmask 11011000
          -47 callgsubr
        </CharString>
        <CharString name="nacute">
          9 callsubr
          115 138 116 callsubr
          hintmask 11011100
          214 605 -101 callgsubr
          138 -610 -55 callsubr
        </CharString>
        <CharString name="nacute.loclPLK">
          9 callsubr
          115 138 116 callsubr
          hintmask 11011100
          214 605 -74 callgsubr
          138 -610 -55 callsubr
        </CharString>
        <CharString name="napostrophe">
          9 callsubr
          87 21 80 65 hstemhm
          49 27 -3 59 callsubr
          hintmask 00000000
          hintmask 11011101
          3 598 rmoveto
          -60 callsubr
          349 -598 rmoveto
          78 callsubr
          vhcurveto
          hintmask 11011011
          -96 -28 -42 -44 -12 hvcurveto
          -4 hlineto
          hintmask 10111011
          -49 callsubr
          hintmask 11011011
          -47 callgsubr
        </CharString>
        <CharString name="ncaron">
          9 callsubr
          115 30 116 callsubr
          hintmask 11011100
          206 605 -99 callsubr
          226 -738 -55 callsubr
        </CharString>
        <CharString name="ncommaaccent">
          14 -10 callsubr
          83 107 callgsubr
          -8 -20 hstemhm
          73 35 131 26 87 35 hintmask 11110111
          352 hmoveto
          -68 callgsubr
          hintmask 11101111
          -49 callsubr
          hintmask 11110111
          -73 callsubr
          -159 -522 -82 callgsubr
          endchar
        </CharString>
        <CharString name="nine">
          29 -8 34 265 34 337 34 hstem
          47 35 293 35 vstem
          208 -8 rmoveto
          104 53 26 81 28 hvcurveto
          16 49 1 86 120 vvcurveto
          113 0 78 -12 45 vhcurveto
          86 -23 -50 20 -105 -37 callgsubr
        </CharString>
        <CharString name="nine.dnom">
          -159 -4 81 callgsubr
          -4 -51 callsubr
        </CharString>
        <CharString name="nine.numr">
          -159 304 81 callgsubr
          304 -51 callsubr
        </CharString>
        <CharString name="nine.ss01">
          36 21 -21 290 34 338 34 hstem
          51 36 302 36 vstem
          170 hmoveto
          42 hlineto
          137 147 76 150 180 vvcurveto
          181 -45 38 -142 -144 -43 -52 -152 -167 39 -35 131 90 36 13 28 19 vhcurveto
          5 -1 -36 -134 -81 -107 -84 -84 rlinecurve
          69 319 rmoveto
          -108 -44 0 169 135 31 34 121 113 37 -20 -169 -128 -47 -21 -103 hvcurveto
          endchar
        </CharString>
        <CharString name="nine.tnum">
          41 -8 34 265 34 337 34 hstem
          59 35 293 35 vstem
          220 -8 rmoveto
          106 53 27 73 24 hvcurveto
          18 60 1 85 117 vvcurveto
          130 0 83 -18 47 vhcurveto
          67 -25 -52 15 -95 -37 callgsubr
        </CharString>
        <CharString name="notequal">
          109 callsubr
          205 147 rmoveto
          218 32 -202 hlineto
          75 148 rlineto
          127 32 -111 hlineto
          67 131 rlineto
          -36 hlineto
          -67 -131 rlineto
          -213 -32 197 hlineto
          -75 -148 rlineto
          -122 -32 106 hlineto
          -64 -127 rlineto
          36 hlineto
          endchar
        </CharString>
        <CharString name="ntilde">
          9 callsubr
          158 -46 callsubr
          73 35 -8 -30 callsubr
          -13 35 hintmask 0000000000000000
          hintmask 1101110100000000
          365 743 rmoveto
          -95 callsubr
          hintmask 1100101010000000
          -102 callsubr
          hintmask 1101110100000000
          -93 callgsubr
          hintmask 1100110010000000
          -13 -743 rmoveto
          -68 callgsubr
          hintmask 1010110010000000
          -49 callsubr
          hintmask 1100110010000000
          -47 callgsubr
        </CharString>
        <CharString name="numbersign">
          97 21 -21 202 34 206 34 212 -20 hstem
          49 399 vstem
          260 hmoveto
          34 hlineto
          33 202 rlineto
          94 34 -88 hlineto
          36 206 rlineto
          79 34 -73 124 callgsubr
          -141 124 callgsubr
          -88 -34 83 hlineto
          -35 -206 rlineto
          -75 -34 69 hlineto
          -34 -202 rlineto
          34 hlineto
          34 202 rlineto
          141 hlineto
          42 240 rmoveto
          -36 -206 rlineto
          -141 hlineto
          35 206 rlineto
          endchar
        </CharString>
        <CharString name="o">
          -22 callsubr
          7 callsubr
          221 -8 -105 callsubr
          endchar
        </CharString>
        <CharString name="oacute">
          -7 callsubr
          198 605 -101 callgsubr
          23 -618 -105 callsubr
          endchar
        </CharString>
        <CharString name="oacute.loclPLK">
          -7 callsubr
          206 605 -74 callgsubr
          15 -618 -105 callsubr
          endchar
        </CharString>
        <CharString name="obreve">
          -22 callsubr
          84 28 hstemhm
          55 35 28 -44 callgsubr
          28 35 hintmask 00000000
          hintmask 11111110
          325 -70 callgsubr
          hintmask 11110010
          -104 -751 -105 callsubr
          endchar
        </CharString>
        <CharString name="ocircumflex">
          -1 -8 132 callgsubr
          263 35 vstem
          120 605 rmoveto
          27 hlineto
          76 108 -56 callsubr
          101 -618 -105 callsubr
          endchar
        </CharString>
        <CharString name="odieresis">
          -22 callsubr
          151 61 hstemhm
          55 35 26 36 callsubr
          22 35 hintmask 00000000
          hintmask 11111110
          116 669 -87 callsubr
          hintmask 11110010
          -68 -738 -105 callsubr
          endchar
        </CharString>
        <CharString name="oe">
          285 -40 callsubr
          35 callsubr
          251 35 vstem
          674 256 rmoveto
          204 -9 58 -142 -90 -42 -21 -53 -21 vhcurveto
          58 -19 -41 16 -89 hhcurveto
          -153 -13 -47 -217 -217 13 -45 153 91 41 17 61 18 hvcurveto
          -59 22 44 -19 86 hhcurveto
          50 57 6 7 29 hvcurveto
          -89 callsubr
          -453 -219 rmoveto
          -101 callsubr
          300 462 rmoveto
          92 26 -19 -171 hvcurveto
          -21 -251 vlineto
          183 13 28 120 vhcurveto
          endchar
        </CharString>
        <CharString name="ogonek">
          -346 -196 32 hstem
          0 34 vstem
          98 -195 rmoveto
          2 callgsubr
        </CharString>
        <CharString name="ograve">
          -7 callsubr
          220 605 -89 callgsubr
          76 -746 -105 callsubr
          endchar
        </CharString>
        <CharString name="ohorn">
          12 callgsubr
          hstemhm
          55 callsubr
          9 32 hintmask 00000000
          hintmask 10101110
          397 608 2 callsubr
          hintmask 10011100
          -71 callsubr
          hintmask 11001100
          42 callsubr
          hintmask 11001110
          62 15 19 74 hvcurveto
          hintmask 10101110
          33 vlineto
          hintmask 10011100
          -208 -584 rmoveto
          -101 callsubr
          endchar
        </CharString>
        <CharString name="ohungarumlaut">
          -22 callsubr
          91 125 7 callsubr
          153 609 -82 callsubr
          -63 -622 -105 callsubr
          endchar
        </CharString>
        <CharString name="omacron">
          -22 callsubr
          189 36 hstem
          55 35 39 184 40 35 vstem
          129 707 -58 callsubr
          92 -751 -105 callsubr
          endchar
        </CharString>
        <CharString name="one">
          -182 89 callsubr
          136 36 vstem
          136 hmoveto
          36 688 -28 hlineto
          -107 -68 rlineto
          -38 vlineto
          99 56 rlineto
          endchar
        </CharString>
        <CharString name="one.dnom">
          -278 21 -21 hstem
          81 33 vstem
          81 hmoveto
          86 callsubr
        </CharString>
        <CharString name="one.numr">
          -278 308 377 hstem
          81 33 vstem
          81 308 rmoveto
          86 callsubr
        </CharString>
        <CharString name="one.tnum">
          41 90 callgsubr
          244 36 vstem
          93 hmoveto
          328 34 -141 654 -27 hlineto
          -156 -81 rlineto
          -36 vlineto
          147 72 rlineto
          -609 -151 vlineto
          endchar
        </CharString>
        <CharString name="oneeighth">
          154 89 callgsubr
          146 30 263 117 callgsubr
          179 33 -30 33 156 33 -30 33 hintmask 1011011100100000
          99 41 callsubr
          hintmask 0111101100100000
          -2 callsubr
          hintmask 1011011100100000
          41 -692 rmoveto
          95 19 33 72 65 -19 16 -36 10 hvcurveto
          2 vlineto
          hintmask 1011011011000000
          36 8 16 26 55 vvcurveto
          71 -25 28 -86 -87 -24 -28 -71 -55 16 -26 36 -8 vhcurveto
          -2 vlineto
          hintmask 1011011100100000
          19 callsubr
          hintmask 1011011011000000
          210 vmoveto
          -63 -15 14 58 58 13 16 65 64 14 -16 -58 -58 -15 -14 -63 hvcurveto
          hintmask 1011011100100000
          -60 callgsubr
        </CharString>
        <CharString name="onehalf">
          133 0 31 315 31 268 117 callgsubr
          200 31 123 32 hintmask 11011110
          99 41 callsubr
          hintmask 11101110
          -62 -39 rlineto
          -33 vlineto
          55 29 rlineto
          284 43 rmoveto
          -329 -688 rlineto
          35 hlineto
          328 688 rlineto
          -55 -626 rmoveto
          38 -1 18 22 14 vhcurveto
          25 15 32 18 24 15 rrcurveto
          39 22 14 21 61 vvcurveto
          85 -38 8 -52 -25 -37 -3 -5 -29 vhcurveto
          -30 vlineto
          4 38 32 3 17 hhcurveto
          49 13 -13 -54 -37 -6 -18 -25 -15 hvcurveto
          -24 -14 -31 -18 -28 -17 rrcurveto
          -40 -23 0 -17 -81 vvcurveto
          -39 186 31 -155 vlineto
          endchar
        </CharString>
        <CharString name="onequarter">
          71 0 116 -31 31 529 117 callgsubr
          261 32 hintmask 01011100
          99 41 callsubr
          hintmask 10101100
          -2 callsubr
          8 -688 rmoveto
          33 hlineto
          hintmask 01011100
          85 41 31 -41 159 -32 -159 -113 vlineto
          99 86 callgsubr
        </CharString>
        <CharString name="ordfeminine">
          -119 315 31 152 31 137 30 hstem
          35 32 168 33 vstem
          140 315 rmoveto
          32 39 8 41 22 hvcurveto
          4 hlineto
          4 -44 rlineto
          27 238 hlineto
          113 -22 25 -93 -38 -38 -4 -5 -25 vhcurveto
          -31 vlineto
          6 29 41 4 24 hhcurveto
          76 13 -12 -100 hvcurveto
          -28 vlineto
          1 -34 -53 2 -21 hhcurveto
          -73 -19 -25 -82 -90 33 -17 72 hvcurveto
          -1 31 rmoveto
          -57 -15 13 63 66 14 10 51 hvcurveto
          103 -24 hlineto
          -34 -2 -31 -9 -21 vhcurveto
          -32 -15 -31 -10 -39 hhcurveto
          endchar
        </CharString>
        <CharString name="ordmasculine">
          -106 314 31 321 30 hstem
          47 33 179 32 vstem
          169 314 rmoveto
          113 9 33 157 158 -9 34 -113 -113 -9 -34 -158 -157 9 -33 113 hvcurveto
          31 vmoveto
          -87 -2 24 135 135 2 27 87 87 3 -27 -135 -135 -3 -24 -87 hvcurveto
          endchar
        </CharString>
        <CharString name="orn.001">
          -107 223 240 hstem
          48 241 vstem
          289 341 rmoveto
          105 -6 17 -117 -112 -6 -17 -105 -102 6 -16 112 117 6 16 102 vhcurveto
          endchar
        </CharString>
        <CharString name="orn.002">
          105 234 60 100 60 hstem
          44 104 callsubr
          100 60 vstem
          210 -36 callsubr
          63 101 -28 callgsubr
          121 87 59 callgsubr
          -29 -21 22 28 29 21 21 29 28 22 -21 -29 -28 -22 -22 -28 hvcurveto
          endchar
        </CharString>
        <CharString name="orn.003">
          -29 46 596 hstem
          45 104 callsubr
          vstem
          211 -36 callsubr
          63 101 -28 callgsubr
          63 101 11 callsubr
          endchar
        </CharString>
        <CharString name="orn.007">
          -107 222 241 hstem
          48 241 vstem
          168 222 rmoveto
          67 54 53 67 67 -54 54 -67 -67 -53 -54 -67 -67 53 -53 67 hvcurveto
          endchar
        </CharString>
        <CharString name="orn.010">
          350 74 callgsubr
          45 704 vstem
          397 hmoveto
          352 348 hlineto
          101 callgsubr
          -207 -145 -143 -205 -204 145 -144 207 vhcurveto
          endchar
        </CharString>
        <CharString name="orn.015">
          121 73 callsubr
          -1 187 95 callsubr
          187 60 -187 hlineto
          187 -272 rmoveto
          213 212 rlineto
          167 60 -192 hlineto
          -188 -187 rlineto
          endchar
        </CharString>
        <CharString name="orn.016">
          121 73 callsubr
          -1 567 95 callsubr
          567 60 -567 hlineto
          endchar
        </CharString>
        <CharString name="orn.017">
          -384 89 callsubr
          0 60 vstem
          0 vmoveto
          60 688 -60 hlineto
          endchar
        </CharString>
        <CharString name="orn.018">
          348 46 596 hstem
          45 104 callsubr
          102 104 callsubr
          vstem
          211 -36 callsubr
          370 hmoveto
          99 62 67 110 126 vvcurveto
          125 -67 111 -99 62 vhcurveto
          -32 -51 rlineto
          82 -51 56 -92 -104 vvcurveto
          -105 -55 -91 -83 -52 vhcurveto
          -275 51 -28 callgsubr
          244 hmoveto
          65 41 44 73 83 vvcurveto
          83 -44 73 -66 41 vhcurveto
          -32 -51 rlineto
          49 -31 33 -54 -61 vvcurveto
          -62 -33 -53 -48 -31 vhcurveto
          -149 50 11 callsubr
          118 hmoveto
          16 callgsubr
        </CharString>
        <CharString name="orn.019">
          105 234 60 100 60 hstem
          44 60 100 104 callsubr
          vstem
          338 -29 callgsubr
          -89 36 59 callgsubr
          -28 -22 22 28 29 22 21 28 29 21 -21 -29 -28 -21 -22 -29 hvcurveto
          endchar
        </CharString>
        <CharString name="orn.020">
          -29 46 596 hstem
          70 104 callsubr
          vstem
          204 -29 callgsubr
          -31 50 rmoveto
          16 callgsubr
        </CharString>
        <CharString name="orn.021">
          309 696 -20 hstem
          45 663 vstem
          376 -116 rmoveto
          193 100 139 201 179 vvcurveto
          188 -149 144 -183 -183 -148 -144 -188 -178 139 -202 192 -100 vhcurveto
          endchar
        </CharString>
        <CharString name="orn.022">
          -55 220 246 hstem
          48 301 vstem
          171 220 rmoveto
          98 80 83 40 40 -80 83 -98 -81 -42 -55 -68 -68 42 -55 81 hvcurveto
          endchar
        </CharString>
        <CharString name="oslash">
          -22 callsubr
          7 callsubr
          349 485 -69 callsubr
        </CharString>
        <CharString name="oslashacute">
          -7 callsubr
          305 738 -64 callgsubr
          119 -120 -69 callsubr
        </CharString>
        <CharString name="otilde">
          -22 callsubr
          130 -46 callsubr
          55 35 0 -30 callsubr
          -2 35 hintmask 00000000
          hintmask 11111010
          355 743 rmoveto
          -95 callsubr
          hintmask 11010101
          -102 callsubr
          hintmask 11111010
          -93 callgsubr
          hintmask 11011001
          -134 -751 -105 callsubr
          endchar
        </CharString>
        <CharString name="p">
          11 -31 callgsubr
          -8 -20 hstemhm
          73 35 257 35 hintmask 11011000
          73 -193 rmoveto
          35 262 58 callsubr
          -58 -56 -10 -76 -21 hvcurveto
          -4 hlineto
          hintmask 10111000
          97 callgsubr
          hlineto
          163 -486 rmoveto
          -65 -37 24 67 -17 hvcurveto
          -7 31 -2 47 62 vvcurveto
          hintmask 11011000
          60 1 47 10 42 vhcurveto
          59 14 39 23 64 hhcurveto
          112 17 -29 -202 hvcurveto
          hintmask 10111000
          -202 -17 -29 -112 vhcurveto
          endchar
        </CharString>
        <CharString name="paragraph">
          -37 688 -20 hstem
          214 36 48 36 vstem
          214 -144 rmoveto
          36 832 -36 hlineto
          -162 -7 -31 -203 -203 7 -29 162 hvcurveto
          84 -366 rmoveto
          36 832 -36 hlineto
          endchar
        </CharString>
        <CharString name="parenleft">
          -221 -150 893 hstem
          70 35 vstem
          176 -150 rmoveto
          33 hlineto
          -69 115 -35 54 278 vvcurveto
          278 35 53 69 115 vhcurveto
          -33 hlineto
          -79 -126 -27 -58 -262 vvcurveto
          -263 26 -58 80 -126 vhcurveto
          endchar
        </CharString>
        <CharString name="parenleft.ss02">
          28 callsubr
          -204 145 -144 207 hvcurveto
          endchar
        </CharString>
        <CharString name="parenright">
          -221 -150 893 hstem
          118 35 vstem
          13 -150 rmoveto
          34 hlineto
          80 126 26 58 263 vvcurveto
          262 -28 58 -78 126 vhcurveto
          -34 hlineto
          69 -115 36 -53 -278 vvcurveto
          -278 -36 -54 -69 -115 vhcurveto
          endchar
        </CharString>
        <CharString name="parenright.ss02">
          -47 74 callgsubr
          0 352 vstem
          0 vmoveto
          207 145 144 204 101 callgsubr
          hvcurveto
          endchar
        </CharString>
        <CharString name="partialdiff">
          -22 callsubr
          76 callgsubr
          39 -1 37 -7 67 hvcurveto
          -9 105 -50 143 -74 73 rrcurveto
          -41 -4 hlineto
          69 -72 37 -87 23 -96 -5 -2 rcurveline
          -13 callsubr
        </CharString>
        <CharString name="percent">
          159 -8 32 -3 -21 311 32 2 32 287 32 -8 -20 hstemhm
          53 33 137 31 94 33 137 32 hintmask 0000000000000000
          hintmask 0110101111000000
          154 311 121 callsubr
          -88 -13 -31 -162 -162 13 -30 88 hvcurveto
          -34 -311 rmoveto
          34 hlineto
          hintmask 1010011111000000
          329 688 rlineto
          -34 hlineto
          -295 -345 rmoveto
          -58 -10 8 152 hvcurveto
          hintmask 1001101111000000
          152 10 9 58 61 8 -9 -152 vhcurveto
          hintmask 1010011111000000
          -152 -10 -8 -59 vhcurveto
          hintmask 1001101111000000
          296 -351 121 callsubr
          -89 -13 -31 -162 -162 13 -30 89 hvcurveto
          32 vmoveto
          -59 -10 8 152 152 10 9 59 60 8 -9 -152 -152 -10 -8 -58 hvcurveto
          endchar
        </CharString>
        <CharString name="period">
          -284 0 65 hstem
          57 46 vstem
          57 hmoveto
          46 65 -46 hlineto
          endchar
        </CharString>
        <CharString name="periodcentered">
          -284 267 65 hstem
          57 46 vstem
          57 267 -81 callgsubr
        </CharString>
        <CharString name="perthousand">
          277 -8 31 -2 -21 297 32 30 32 274 31 -8 -20 hstemhm
          53 31 117 31 43 31 117 31 35 31 117 31 hintmask 0000000000000000
          hintmask 0101101100000000
          143 359 rmoveto
          -2 callgsubr
          -72 -359 rmoveto
          33 hlineto
          hintmask 0001011100000000
          333 688 rlineto
          -34 hlineto
          -260 -297 rmoveto
          -50 -9 5 131 hvcurveto
          hintmask 0000101100000000
          132 9 6 50 52 6 -6 -132 vhcurveto
          hintmask 0001011100000000
          -131 -8 -5 -50 vhcurveto
          hintmask 1010000011110000
          222 -399 rmoveto
          -2 callgsubr
          214 hmoveto
          -2 callgsubr
          -214 31 rmoveto
          49 callsubr
          214 hmoveto
          49 callsubr
          endchar
        </CharString>
        <CharString name="pi">
          9 67 callgsubr
          hstem
          73 35 237 35 vstem
          345 hmoveto
          35 510 -307 -510 35 478 237 hlineto
          endchar
        </CharString>
        <CharString name="plus">
          42 237 32 hstem
          227 31 vstem
          227 73 rmoveto
          31 164 165 32 -165 164 -31 -164 -164 -32 164 hlineto
          endchar
        </CharString>
        <CharString name="plusminus">
          42 30 32 297 32 hstem
          227 31 vstem
          227 195 rmoveto
          31 164 165 32 -165 163 -31 -163 -164 -32 164 hlineto
          -164 -329 63 callsubr
          endchar
        </CharString>
        <CharString name="product">
          90 654 34 hstem
          81 36 300 35 vstem
          417 -190 rmoveto
          35 878 -371 -878 36 844 300 hlineto
          endchar
        </CharString>
        <CharString name="q">
          11 -31 callgsubr
          -8 -20 54 callsubr
          hintmask 11011000
          347 -193 rmoveto
          35 hlineto
          hintmask 10111000
          703 -28 vlineto
          hintmask 11011000
          -3 -78 rlineto
          -4 hlineto
          76 -21 -56 10 -58 hhcurveto
          -132 -25 -49 -214 -214 25 -49 132 71 43 21 56 17 hvcurveto
          4 hlineto
          -128 -45 -40 callgsubr
          112 64 39 -23 -53 13 hvcurveto
          11 -48 1 -47 -60 vvcurveto
          -62 -2 -47 -8 -37 vhcurveto
          -61 -16 -37 -24 -65 hhcurveto
          endchar
        </CharString>
        <CharString name="question">
          -54 callgsubr
        </CharString>
        <CharString name="question.case">
          -54 callgsubr
        </CharString>
        <CharString name="questiondown">
          -136 -186 34 597 65 hstemhm
          53 36 112 46 -41 36 hintmask 00000000
          hintmask 11110000
          201 126 callsubr
          -2 -696 rmoveto
          35 53 6 8 41 hvcurveto
          32 vlineto
          -7 -46 -51 -5 -28 hhcurveto
          -99 -15 34 102 109 18 15 57 27 hvcurveto
          hintmask 11101000
          94 callsubr
          -4 -13 -44 -22 vhcurveto
          -39 -19 rlineto
          -64 -32 -2 -71 -77 vvcurveto
          hintmask 11110000
          -112 31 -47 115 vhcurveto
          endchar
        </CharString>
        <CharString name="questiondown.case">
          -92 -8 34 489 -20 128 65 hstemhm
          56 36 113 45 -41 36 hintmask 00000000
          hintmask 11111000
          205 623 31 callgsubr
          -2 -696 rmoveto
          34 54 6 8 41 hvcurveto
          32 vlineto
          -7 -47 -50 -5 -29 hhcurveto
          -98 -16 34 102 109 19 15 56 27 hvcurveto
          hintmask 11110100
          94 callsubr
          -3 -13 -44 -22 vhcurveto
          -39 -19 rlineto
          -65 -32 -2 -71 -77 vvcurveto
          hintmask 11111000
          -112 32 -47 115 vhcurveto
          endchar
        </CharString>
        <CharString name="quotedbl">
          -208 454 234 hstemhm
          48 39 62 39 hintmask 00000000
          hintmask 11100000
          94 callgsubr
          109 -145 rmoveto
          23 hlineto
          8 145 rlineto
          89 -39 -89 vlineto
          endchar
        </CharString>
        <CharString name="quotedblbase">
          -176 -101 21 80 65 hstem
          76 27 81 27 vstem
          30 -80 rmoveto
          -60 callsubr
          109 hmoveto
          -21 vlineto
          58 14 19 72 hvcurveto
          75 -47 -65 20 -17 vlineto
          -49 -3 -14 -42 vhcurveto
          endchar
        </CharString>
        <CharString name="quotedblleft">
          -194 522 65 80 21 hstem
          45 26 82 27 45 callsubr
          108 -75 rmoveto
          47 65 -20 17 hlineto
          49 3 14 43 vhcurveto
          21 vlineto
          -59 -14 -19 -72 hvcurveto
          endchar
        </CharString>
        <CharString name="quotedblright">
          -194 522 21 80 65 hstem
          71 26 82 27 vstem
          25 543 -82 callgsubr
          108 hmoveto
          -60 callsubr
          endchar
        </CharString>
        <CharString name="quoteleft">
          -302 522 65 80 21 hstem
          45 26 45 callsubr
          endchar
        </CharString>
        <CharString name="quoteright">
          -302 522 21 80 65 hstem
          71 26 vstem
          25 543 -82 callgsubr
          endchar
        </CharString>
        <CharString name="quotesinglbase">
          -284 -101 21 80 65 hstem
          76 27 vstem
          30 -80 rmoveto
          -60 callsubr
          endchar
        </CharString>
        <CharString name="quotesingle">
          127 callsubr
          39 vstem
          94 callgsubr
          endchar
        </CharString>
        <CharString name="r">
          22 callgsubr
          hstemhm
          73 35 hintmask 11010000
          73 hmoveto
          -70 callsubr
          hintmask 10110000
          91 callsubr
          endchar
        </CharString>
        <CharString name="racute">
          22 callgsubr
          115 138 hstemhm
          73 35 hintmask 11011000
          118 605 -101 callgsubr
          -45 -610 rmoveto
          -70 callsubr
          hintmask 10111000
          91 callsubr
          endchar
        </CharString>
        <CharString name="radical">
          1 -106 48 hstem
          17 408 vstem
          214 -106 rmoveto
          42 hlineto
          169 876 rlineto
          -36 hlineto
          -157 -828 -136 374 -79 -38 12 -30 46 22 rlineto
          endchar
        </CharString>
        <CharString name="rcaron">
          22 callgsubr
          115 30 hstemhm
          73 35 hintmask 11011000
          111 605 -99 callsubr
          42 -738 rmoveto
          -70 callsubr
          hintmask 10111000
          91 callsubr
          endchar
        </CharString>
        <CharString name="rcommaaccent">
          -178 -10 callsubr
          83 -21 482 36 -8 -20 hstemhm
          73 35 -7 26 hintmask 11110100
          73 hmoveto
          -70 callsubr
          hintmask 11101100
          91 callsubr
          hintmask 11110010
          -18 -717 rmoveto
          -21 vlineto
          59 13 19 72 hvcurveto
          75 vlineto
          hintmask 11110100
          -46 -65 hlineto
          hintmask 11110010
          17 callgsubr
          endchar
        </CharString>
        <CharString name="registered">
          123 -8 26 293 29 160 29 141 26 hstem
          77 28 86 31 131 30 79 28 vstem
          283 696 rmoveto
          112 callgsubr
          112 callsubr
          hvcurveto
          -678 27 callgsubr
          100 403 rmoveto
          55 -2 53 -80 vhcurveto
          -110 -372 31 154 82 hlineto
          4 hlineto
          49 -154 rlineto
          32 hlineto
          -51 160 rlineto
          40 15 5 44 45 vvcurveto
          -87 -81 rmoveto
          -74 160 76 hlineto
          52 3 -31 -48 -49 -3 -32 -54 hvcurveto
          endchar
        </CharString>
        <CharString name="rightCloseDialog">
          179 73 callsubr
          -1 187 378 60 vstem
          624 688 rmoveto
          -625 -60 565 -568 -190 hlineto
          -188 -187 rlineto
          -85 vlineto
          213 212 rlineto
          165 hlineto
          60 hlineto
          -438 60 rmoveto
          -187 -60 187 hlineto
          endchar
        </CharString>
        <CharString name="rightOpenDialog">
          180 73 callsubr
          565 60 vstem
          625 688 rmoveto
          -626 -60 566 -568 -566 -60 566 hlineto
          60 hlineto
          endchar
        </CharString>
        <CharString name="ring">
          -242 617 128 callsubr
          hstem
          10 107 callsubr
          vstem
          100 617 -90 callsubr
          endchar
        </CharString>
        <CharString name="s">
          -65 -31 callgsubr
          hstem
          45 35 219 -51 callgsubr
          endchar
        </CharString>
        <CharString name="sacute">
          -65 54 callgsubr
          45 35 219 35 vstem
          174 605 -101 callgsubr
          12 -618 -97 callgsubr
          endchar
        </CharString>
        <CharString name="sacute.loclPLK">
          -65 54 callgsubr
          45 35 219 35 vstem
          174 605 -74 callgsubr
          12 -618 -97 callgsubr
          endchar
        </CharString>
        <CharString name="scaron">
          -65 74 callsubr
          30 hstem
          45 35 219 35 vstem
          170 605 -99 callsubr
          96 -746 -97 callgsubr
          endchar
        </CharString>
        <CharString name="scedilla">
          -65 -31 callgsubr
          hstem
          45 35 219 35 vstem
          334 133 rmoveto
          106 -18 21 -69 9 vhcurveto
          -108 14 rlineto
          -45 6 -14 10 81 vvcurveto
          92 44 14 62 50 45 -4 -9 33 vhcurveto
          33 vlineto
          7 -29 -48 5 -39 hhcurveto
          -95 -58 -20 -125 -82 18 -32 68 -9 hvcurveto
          109 -15 rlineto
          45 -6 14 -4 -92 vvcurveto
          -67 -13 -42 -89 -53 -42 4 8 -45 vhcurveto
          -33 vlineto
          27 -5 47 -5 41 108 callsubr
          95 3 38 37 101 vvcurveto
          endchar
        </CharString>
        <CharString name="scircumflex">
          -65 -31 callgsubr
          195 30 hstem
          45 35 219 35 vstem
          87 605 rmoveto
          27 hlineto
          76 108 -56 callsubr
          99 -618 -97 callgsubr
          endchar
        </CharString>
        <CharString name="scommaaccent">
          -65 -10 callsubr
          54 36 callgsubr
          hstem
          45 35 120 26 73 -51 callgsubr
          -32 -199 -82 callgsubr
          endchar
        </CharString>
        <CharString name="second">
          -203 688 -20 hstem
          48 43 62 43 vstem
          40 394 51 callgsubr
          89 -294 51 callgsubr
          endchar
        </CharString>
        <CharString name="section">
          70 -171 34 229 20 300 20 230 34 hstemhm
          57 36 16 36 223 37 16 36 hintmask 10010101
          237 -171 rmoveto
          hintmask 11010111
          105 63 25 126 56 -8 33 -28 23 hvcurveto
          hintmask 11110101
          69 11 19 61 78 vvcurveto
          114 -29 15 -91 29 vhcurveto
          -123 39 rlineto
          -53 17 -16 15 79 vvcurveto
          97 51 15 75 45 55 -5 -8 31 vhcurveto
          35 vlineto
          7 -28 -52 5 -46 hhcurveto
          -104 -63 -25 -126 -57 8 -32 28 -24 hvcurveto
          hintmask 10111111
          -70 -11 -18 -60 -78 vvcurveto
          -114 29 -15 93 -29 vhcurveto
          129 -41 rlineto
          45 -15 15 -15 -79 vvcurveto
          -97 -51 -15 -74 -45 -55 5 8 -32 vhcurveto
          -35 vlineto
          hintmask 10010101
          -7 28 53 -5 45 hhcurveto
          hintmask 11111101
          111 283 rmoveto
          -7 -9 3 6 -21 hvcurveto
          -164 51 rlineto
          -38 11 -16 13 96 vvcurveto
          87 35 33 37 8 9 -3 -8 24 vhcurveto
          170 -52 rlineto
          28 -8 17 -14 -95 vvcurveto
          -87 -36 -33 -37 vhcurveto
          endchar
        </CharString>
        <CharString name="semicolon">
          -284 -101 21 80 65 380 65 hstemhm
          57 46 -27 27 hintmask 00000000
          hintmask 11110000
          57 126 callsubr
          hintmask 11101000
          -27 -590 rmoveto
          -60 callsubr
          endchar
        </CharString>
        <CharString name="seven">
          -47 117 callsubr
          28 333 vstem
          105 hmoveto
          38 hlineto
          218 659 rlineto
          29 -333 -34 294 vlineto
          endchar
        </CharString>
        <CharString name="seven.dnom">
          -202 21 -21 347 30 hstem
          17 204 vstem
          59 hmoveto
          36 hlineto
          53 callgsubr
          endchar
        </CharString>
        <CharString name="seven.numr">
          -202 655 30 hstem
          17 204 vstem
          59 308 rmoveto
          36 hlineto
          53 callgsubr
          endchar
        </CharString>
        <CharString name="seven.tnum">
          41 117 callsubr
          61 360 vstem
          145 hmoveto
          39 hlineto
          237 659 rlineto
          29 -360 -34 320 vlineto
          endchar
        </CharString>
        <CharString name="seveneighths">
          176 89 callgsubr
          146 30 273 30 3 -20 hstemhm
          17 204 137 42 callgsubr
          hintmask 0000000000000000
          hintmask 0111010100100000
          82 hmoveto
          1 callgsubr
          -352 -380 rmoveto
          36 hlineto
          hintmask 1011101100100000
          53 callgsubr
          286 -659 8 callsubr
          hintmask 1011100011000000
          -49 callgsubr
          hintmask 1011100100100000
          -36 -10 -19 -16 -65 vvcurveto
          hintmask 1011101100100000
          -72 19 -33 95 vhcurveto
          hintmask 1011100011000000
          -41 callsubr
          hintmask 1011100100100000
          -60 callgsubr
        </CharString>
        <CharString name="six">
          29 131 callsubr
          38 290 36 76 callsubr
          -100 -32 -24 -28 -16 hvcurveto
          -5 hlineto
          266 20 51 153 38 52 -5 -7 39 vhcurveto
          32 vlineto
          8 -44 -55 6 -36 hhcurveto
          -110 -52 -30 -92 -26 hvcurveto
          -13 -47 -1 -82 -111 vvcurveto
          -119 1 -80 10 -34 vhcurveto
          -91 27 58 callgsubr
          23 -10 -162 -144 -27 -21 -117 hvcurveto
          endchar
        </CharString>
        <CharString name="six.dnom">
          -159 -4 81 callsubr
          -4 -50 callgsubr
        </CharString>
        <CharString name="six.numr">
          -159 304 81 callsubr
          304 -50 callgsubr
        </CharString>
        <CharString name="six.ss01">
          36 -8 34 338 34 290 -20 hstem
          55 36 302 36 vstem
          243 -8 rmoveto
          143 43 52 152 167 -39 35 -131 -89 -36 -13 -28 -20 hvcurveto
          -5 1 29 101 59 102 113 122 rlinecurve
          -41 callgsubr
          -146 -156 -67 -151 -170 vvcurveto
          -181 45 -38 143 vhcurveto
          -2 34 rmoveto
          -113 -37 20 169 128 47 21 103 108 44 0 -169 -135 -31 -34 -121 hvcurveto
          endchar
        </CharString>
        <CharString name="six.tnum">
          41 131 callsubr
          36 293 35 76 callsubr
          -83 -44 -15 -37 -21 hvcurveto
          -4 hlineto
          266 19 51 153 38 53 -5 -7 38 vhcurveto
          32 vlineto
          8 -41 -56 6 -38 hhcurveto
          -101 -52 -24 -76 -29 hvcurveto
          -19 -49 -1 -88 -125 vvcurveto
          -119 1 -80 12 -39 vhcurveto
          -86 25 58 callgsubr
          24 -10 -162 -144 -28 -21 -117 hvcurveto
          endchar
        </CharString>
        <CharString name="slash">
          129 callsubr
          20 -55 rmoveto
          36 hlineto
          191 798 rlineto
          -36 hlineto
          endchar
        </CharString>
        <CharString name="space">
          -256 endchar
        </CharString>
        <CharString name="sterling">
          -6 0 34 307 34 287 34 hstem
          101 36 vstem
          137 34 rmoveto
          307 191 34 -191 63 vlineto
          98 9 72 40 30 vhcurveto
          18 24 33 6 46 hhcurveto
          27 39 -4 -6 28 hvcurveto
          32 vlineto
          7 -23 -42 5 -34 hhcurveto
          -141 -42 -61 -203 hvcurveto
          -57 -54 -34 54 -307 -54 -34 344 34 vlineto
          endchar
        </CharString>
        <CharString name="summation">
          80 -190 34 810 34 hstem
          76 371 vstem
          76 -190 rmoveto
          371 34 -328 hlineto
          236 405 -236 405 rlineto
          328 34 -371 -30 hlineto
          237 -409 -237 -409 rlineto
          endchar
        </CharString>
        <CharString name="t">
          -192 67 callgsubr
          hstem
          102 35 vstem
          102 hmoveto
          -1 callsubr
          endchar
        </CharString>
        <CharString name="tbar">
          -192 21 -21 245 32 201 32 hstem
          102 35 vstem
          229 478 rmoveto
          32 -92 148 -35 -148 -79 -32 79 -201 -69 -32 69 -245 35 245 88 32 -88 201 vlineto
          endchar
        </CharString>
        <CharString name="tcaron">
          -192 67 callgsubr
          178 -20 hstem
          102 35 135 39 vstem
          260 454 7 callgsubr
          -170 -599 rmoveto
          -1 callsubr
          endchar
        </CharString>
        <CharString name="thorn">
          11 -31 callgsubr
          hstem
          73 35 257 35 vstem
          73 -190 rmoveto
          35 259 58 callsubr
          121 callgsubr
          163 -719 rmoveto
          -65 -37 24 71 -18 hvcurveto
          -6 27 -2 47 62 vvcurveto
          60 1 47 8 37 vhcurveto
          64 16 39 23 64 83 callgsubr
        </CharString>
        <CharString name="three">
          -25 -8 34 306 34 296 34 hstemhm
          319 36 -30 36 hintmask 11110000
          177 47 callgsubr
          56 15 32 46 100 vvcurveto
          130 -41 51 -137 -41 -58 -6 -8 -40 vhcurveto
          -32 vlineto
          7 40 55 5 37 hhcurveto
          102 47 -21 -128 -120 -54 -27 -48 hvcurveto
          -95 -34 95 hlineto
          hintmask 11101000
          78 30 -45 -110 -130 -56 -21 -92 -34 -58 5 7 -50 hvcurveto
          -32 vlineto
          hintmask 11110000
          -8 40 60 -6 42 hhcurveto
          endchar
        </CharString>
        <CharString name="three.dnom">
          -189 -4 30 150 30 145 31 hstemhm
          185 32 -29 33 hintmask 11101000
          109 -4 98 callgsubr
          hintmask 11110000
          -22 callgsubr
          -60 -29 -12 -28 hvcurveto
          -57 -30 hlineto
          hintmask 11101000
          8 callgsubr
          -5 25 37 -3 26 hhcurveto
          endchar
        </CharString>
        <CharString name="three.numr">
          -189 304 30 150 114 callgsubr
          hintmask 11010100
          109 304 rmoveto
          93 19 36 69 hvcurveto
          hintmask 10110100
          61 -22 23 -34 7 vhcurveto
          2 vlineto
          hintmask 10111000
          -22 callgsubr
          hvcurveto
          hintmask 11011000
          -60 -29 -12 -28 vhcurveto
          -57 -30 hlineto
          hintmask 11010100
          8 callgsubr
          -5 25 37 -3 26 hhcurveto
          endchar
        </CharString>
        <CharString name="three.tnum">
          41 -8 34 306 34 296 34 hstemhm
          362 36 -30 36 hintmask 11110000
          220 47 callgsubr
          55 15 33 46 100 vvcurveto
          130 -41 51 -137 -42 -57 -6 -8 -40 vhcurveto
          -32 vlineto
          7 39 56 5 36 hhcurveto
          102 48 -21 -128 -120 -55 -27 -47 hvcurveto
          -95 -34 95 hlineto
          hintmask 11101000
          77 31 -45 -110 -130 -56 -21 -92 -34 -59 5 7 -50 hvcurveto
          -32 vlineto
          hintmask 11110000
          -8 41 59 -6 43 hhcurveto
          endchar
        </CharString>
        <CharString name="threeeighths">
          226 89 callgsubr
          98 30 18 30 102 114 callgsubr
          187 42 callgsubr
          hintmask 0000000000000000
          hintmask 1011101101100100
          109 304 98 callgsubr
          hintmask 1010101110100100
          -22 callgsubr
          hvcurveto
          hintmask 1010110110100100
          -60 -29 -12 -28 vhcurveto
          -57 -30 hlineto
          hintmask 1011110101100100
          8 callgsubr
          hintmask 1011101101100100
          73 callgsubr
          hintmask 0110110101100100
          23 -304 rmoveto
          1 callgsubr
          hintmask 1010110101100100
          61 -692 8 callsubr
          hintmask 1010110101011000
          -49 callgsubr
          hintmask 1010110101100100
          19 callsubr
          hintmask 1010110101011000
          -41 callsubr
          hintmask 1010110101100100
          -60 callgsubr
        </CharString>
        <CharString name="threequarters">
          147 0 116 -31 31 194 31 150 30 144 31 -8 -20 hstemhm
          100 93 11 32 -29 33 227 33 hintmask 0111100101000000
          53 349 rmoveto
          -30 vlineto
          -5 28 32 -4 23 hhcurveto
          hintmask 0111100011000000
          109 callgsubr
          hintmask 0111100101000000
          29 15 14 24 44 vvcurveto
          74 -23 29 -77 -23 -33 -4 -5 -25 vhcurveto
          -30 vlineto
          5 30 28 3 19 hhcurveto
          48 24 -12 -61 -58 -27 -13 -21 hvcurveto
          hintmask 0111101101000000
          -56 -30 hlineto
          hintmask 0111100011000000
          56 hlineto
          35 16 -23 -54 -62 -28 -11 -44 hvcurveto
          hintmask 0111100101000000
          -17 -30 3 5 -35 hvcurveto
          hintmask 1011010101000000
          79 -349 rmoveto
          34 hlineto
          329 688 rlineto
          -35 hlineto
          7 -688 rmoveto
          33 hlineto
          hintmask 0111100101000000
          85 41 31 -41 159 -33 -159 -113 vlineto
          100 86 callgsubr
        </CharString>
        <CharString name="tilde">
          -166 648 -46 callsubr
          7 -30 callsubr
          hintmask 00000000
          hintmask 11110000
          272 -23 callgsubr
        </CharString>
        <CharString name="tildecomb">
          648 -46 callsubr
          -271 -30 callsubr
          hintmask 00000000
          hintmask 11110000
          -6 -23 callgsubr
        </CharString>
        <CharString name="tildecomb.case">
          793 -46 callsubr
          -271 -30 callsubr
          hintmask 00000000
          hintmask 11110000
          -6 18 callgsubr
          hintmask 01110000
          -102 callsubr
          hintmask 11110000
          -93 callgsubr
          endchar
        </CharString>
        <CharString name="trademark">
          95 383 40 244 21 hstem
          104 23 118 22 180 22 vstem
          104 383 rmoveto
          23 284 71 21 -165 -21 71 hlineto
          141 -284 rmoveto
          22 250 4 hlineto
          75 -250 rlineto
          22 hlineto
          75 251 rlineto
          4 -251 22 305 -31 hlineto
          -78 -265 rlineto
          -4 hlineto
          -80 265 rlineto
          -31 hlineto
          endchar
        </CharString>
        <CharString name="two">
          -11 0 34 628 34 hstem
          53 35 257 35 vstem
          88 100 rmoveto
          57 0 32 8 24 vhcurveto
          5 17 11 12 18 11 161 95 rcurveline
          67 40 22 98 callsubr
          -38 vhcurveto
          -32 vlineto
          6 48 65 5 39 hhcurveto
          104 28 callgsubr
          327 34 -292 vlineto
          endchar
        </CharString>
        <CharString name="two.dnom">
          -180 0 114 callsubr
          61 -43 callsubr
        </CharString>
        <CharString name="two.numr">
          -180 308 114 callsubr
          369 -43 callsubr
        </CharString>
        <CharString name="two.tnum">
          41 0 34 628 34 hstem
          83 36 256 36 vstem
          119 100 rmoveto
          51 0 32 6 24 vhcurveto
          5 21 10 13 19 11 56 33 56 33 50 30 rrcurveto
          67 40 23 98 callsubr
          -39 vhcurveto
          -32 vlineto
          6 48 66 5 39 hhcurveto
          103 28 callgsubr
          328 34 -292 vlineto
          endchar
        </CharString>
        <CharString name="u">
          -55 callgsubr
          24 callgsubr
          hintmask 00000000
          hintmask 01111000
          357 hmoveto
          27 510 -35 -264 hlineto
          hintmask 10111000
          -103 callsubr
          endchar
        </CharString>
        <CharString name="uacute">
          -55 callgsubr
          115 138 24 callgsubr
          hintmask 10111100
          213 605 -101 callgsubr
          hintmask 01111100
          144 -610 -59 callsubr
          hintmask 10111100
          -103 callsubr
          endchar
        </CharString>
        <CharString name="ubreve">
          -55 callgsubr
          112 28 hstemhm
          70 35 20 -44 callgsubr
          17 35 hintmask 00000000
          hintmask 10111111
          332 -70 callgsubr
          hintmask 01111001
          25 131 callgsubr
          hintmask 10111001
          -103 callsubr
          endchar
        </CharString>
        <CharString name="ucircumflex">
          -55 callgsubr
          223 30 24 callgsubr
          hintmask 10111100
          125 605 rmoveto
          27 hlineto
          76 108 -56 callsubr
          hintmask 01111100
          232 -610 -59 callsubr
          hintmask 10111100
          -103 callsubr
          endchar
        </CharString>
        <CharString name="udieresis">
          -55 callgsubr
          179 61 hstemhm
          70 35 14 36 callsubr
          15 35 hintmask 00000000
          hintmask 10111111
          119 669 -87 callsubr
          hintmask 01111001
          65 34 callgsubr
          hintmask 10111001
          -103 callsubr
          endchar
        </CharString>
        <CharString name="ugrave">
          -55 callgsubr
          115 138 24 callgsubr
          hintmask 10111100
          227 605 -89 callgsubr
          hintmask 01111100
          205 -738 -59 callsubr
          hintmask 10111100
          -103 callsubr
          endchar
        </CharString>
        <CharString name="uhorn">
          41 callgsubr
          24 callgsubr
          58 32 hintmask 10111100
          442 608 9 callgsubr
          -28 hlineto
          -236 vlineto
          -103 callsubr
          hintmask 01111100
          -33 callsubr
          endchar
        </CharString>
        <CharString name="uhungarumlaut">
          -55 callgsubr
          119 125 24 callgsubr
          hintmask 10111100
          160 609 -82 callsubr
          hintmask 01111100
          66 -614 -59 callsubr
          hintmask 10111100
          -103 callsubr
          endchar
        </CharString>
        <CharString name="umacron">
          -55 callgsubr
          217 36 hstemhm
          70 35 31 184 29 35 hintmask 00000000
          hintmask 10111110
          136 707 -58 callsubr
          hintmask 01111010
          221 131 callgsubr
          hintmask 10111010
          -103 callsubr
          endchar
        </CharString>
        <CharString name="underscore">
          -144 -160 84 callsubr
          endchar
        </CharString>
        <CharString name="underscoredbl">
          -144 -250 32 58 84 callsubr
          -122 vmoveto
          300 32 -300 hlineto
          endchar
        </CharString>
        <CharString name="uni00AD">
          46 callsubr
        </CharString>
        <CharString name="uni00B2">
          -157 319 31 315 31 hstem
          50 32 123 32 vstem
          82 380 rmoveto
          -28 callsubr
          31 -155 vlineto
          endchar
        </CharString>
        <CharString name="uni00B3">
          -160 310 31 150 30 144 31 hstemhm
          93 93 11 32 -29 33 hintmask 11101000
          129 310 rmoveto
          hintmask 11100100
          109 callgsubr
          hintmask 11101000
          29 15 14 24 44 vvcurveto
          74 -23 29 -76 -24 -33 -4 -5 -25 vhcurveto
          -30 vlineto
          5 30 29 3 18 hhcurveto
          48 24 -12 -61 -58 -27 -13 -21 hvcurveto
          hintmask 11111000
          -56 -30 hlineto
          hintmask 11100100
          56 hlineto
          35 16 -23 -54 -62 -28 -11 -43 -18 -30 3 5 -35 hvcurveto
          -30 vlineto
          hintmask 11101000
          -5 28 32 -4 23 hhcurveto
          endchar
        </CharString>
        <CharString name="uni00B5">
          -38 callsubr
        </CharString>
        <CharString name="uni00B9">
          -246 688 -20 hstem
          98 32 vstem
          98 41 callsubr
          -61 -39 rlineto
          -33 vlineto
          54 29 rlineto
          endchar
        </CharString>
        <CharString name="uni0162">
          -30 117 callsubr
          189 36 vstem
          23 688 rmoveto
          -34 166 -654 99 callsubr
          5 654 166 34 hlineto
          endchar
        </CharString>
        <CharString name="uni0163">
          -192 67 callgsubr
          hstem
          102 35 vstem
          137 510 rmoveto
          148 -35 -148 -79 -32 79 -478 99 callsubr
          4 478 92 32 hlineto
          endchar
        </CharString>
        <CharString name="uni018F">
          75 103 callsubr
          hstem
          63 36 321 36 vstem
          250 696 rmoveto
          -47 -52 -7 -8 -34 hvcurveto
          -33 vlineto
          7 32 51 7 37 hhcurveto
          162 20 -30 -267 1 hvcurveto
          -357 -21 hlineto
          -307 17 -45 180 179 17 45 307 311 -30 41 -176 vhcurveto
          10 -670 rmoveto
          -140 -20 12 293 -1 hvcurveto
          321 hlineto
          -293 -1 -20 -12 -139 hhcurveto
          endchar
        </CharString>
        <CharString name="uni019D">
          90 -193 30 163 40 callgsubr
          90 callsubr
          hintmask 10101110
          417 688 rmoveto
          hintmask 11001110
          -604 -4 vlineto
          -291 604 rlineto
          -41 -794 hlineto
          -45 -6 -12 -68 vhcurveto
          -30 vlineto
          75 34 5 92 hvcurveto
          hintmask 10110110
          700 4 vlineto
          292 -604 rlineto
          40 688 hlineto
          endchar
        </CharString>
        <CharString name="uni01C4">
          477 95 callgsubr
          689 750 -99 callsubr
          -528 -883 rmoveto
          -37 callsubr
        </CharString>
        <CharString name="uni01C5">
          420 105 callgsubr
          95 30 19 34 hstemhm
          81 36 285 36 hintmask 00000000
          hintmask 11111100
          669 605 -99 callsubr
          -508 -738 rmoveto
          -27 callsubr
          hvcurveto
          hintmask 11011100
          24 callsubr
          vhcurveto
          -154 hlineto
          36 -654 -63 callsubr
          309 -34 rmoveto
          -83 callsubr
          endchar
        </CharString>
        <CharString name="uni01C6">
          374 -8 32 -24 129 callgsubr
          -24 32 87 30 54 callsubr
          hintmask 00000000
          hintmask 10100110
          0 callsubr
          hintmask 01010110
          -54 callsubr
          hintmask 10100110
          -214 25 -49 132 vhcurveto
          hintmask 01101110
          399 613 -99 callsubr
          -40 -738 rmoveto
          -83 callsubr
          hintmask 10010110
          -272 -4 -77 callsubr
          endchar
        </CharString>
        <CharString name="uni01C7">
          160 90 callgsubr
          81 37 375 36 0 callgsubr
          318 -654 -72 callsubr
        </CharString>
        <CharString name="uni01C8">
          116 -193 30 163 34 476 -20 192 61 -55 -20 hstemhm
          81 37 331 41 -38 35 hintmask 00000000
          hintmask 11110110
          449 682 -39 callsubr
          -368 -743 rmoveto
          283 34 -246 hlineto
          hintmask 11101101
          654 -37 vlineto
          297 -881 rmoveto
          -63 callgsubr
        </CharString>
        <CharString name="uni01C9">
          93 callgsubr
          73 35 143 41 -38 35 hintmask 11111010
          65 callsubr
          hintmask 11111100
          178 -61 -39 callsubr
          -71 -936 rmoveto
          hintmask 11111010
          -63 callgsubr
        </CharString>
        <CharString name="uni01CA">
          315 0 34 -34 84 520 84 0 -20 90 callsubr
          196 36 hintmask 10011110
          412 hmoveto
          40 688 -35 hlineto
          hintmask 01011110
          -604 -4 vlineto
          -291 604 rlineto
          -41 hlineto
          hintmask 10101110
          -688 35 604 4 vlineto
          434 -570 -72 callsubr
        </CharString>
        <CharString name="uni01CB">
          271 -193 30 163 84 -63 -42 callgsubr
          114 84 -6 61 -55 -20 90 callsubr
          152 41 -38 35 hintmask 0000000000000000
          hintmask 1011010111000000
          604 682 -39 callsubr
          -192 -743 rmoveto
          40 hlineto
          hintmask 1101001110100000
          688 -35 -59 callgsubr
          hintmask 1011100110100000
          604 4 vlineto
          413 -797 rmoveto
          -63 callgsubr
        </CharString>
        <CharString name="uni01CC">
          195 -193 30 184 107 callgsubr
          -8 -20 192 61 116 callsubr
          141 41 -38 35 hintmask 0000000000000000
          hintmask 1110111100000000
          528 682 -39 callsubr
          -176 -743 rmoveto
          -68 callgsubr
          hintmask 1101111010000000
          -49 callsubr
          hintmask 1110111010000000
          -73 callsubr
          105 -508 rmoveto
          75 34 5 92 hvcurveto
          hintmask 1101111010000000
          606 -35 -616 vlineto
          -45 -6 -12 -68 vhcurveto
          endchar
        </CharString>
        <CharString name="uni01CD">
          -75 callsubr
          62 30 79 callsubr
          225 750 -99 callsubr
          284 -883 rmoveto
          -104 callsubr
          endchar
        </CharString>
        <CharString name="uni01CD.ss01">
          -79 callsubr
          54 30 12 callsubr
          238 750 -99 callsubr
          252 -883 -106 callsubr
          endchar
        </CharString>
        <CharString name="uni01CE">
          -80 callsubr
          87 30 39 callsubr
          192 605 -99 callsubr
          73 -746 -52 callsubr
          hintmask 01111110
          -107 callgsubr
          hintmask 10111110
          -95 callgsubr
          endchar
        </CharString>
        <CharString name="uni01CF">
          -238 -36 callgsubr
          82 30 hstem
          85 36 vstem
          80 750 -99 callsubr
          85 -883 -19 callsubr
        </CharString>
        <CharString name="uni01D0">
          -18 callsubr
          115 30 hstem
          73 35 vstem
          68 605 -99 callsubr
          85 -738 -33 callgsubr
        </CharString>
        <CharString name="uni01D1">
          82 72 callgsubr
          30 13 callsubr
          240 750 -99 callsubr
          103 -891 -105 callgsubr
          endchar
        </CharString>
        <CharString name="uni01D2">
          -1 74 callsubr
          30 7 callsubr
          199 605 -99 callsubr
          102 -746 -105 callsubr
          endchar
        </CharString>
        <CharString name="uni01D3">
          -35 callgsubr
          82 30 12 callsubr
          238 750 -99 callsubr
          252 -195 rmoveto
          -424 vlineto
          -102 callgsubr
          394 vlineto
          endchar
        </CharString>
        <CharString name="uni01D4">
          -55 callgsubr
          115 30 24 callgsubr
          hintmask 10111100
          206 605 -99 callsubr
          hintmask 01111100
          231 -738 -59 callsubr
          hintmask 10111100
          -103 callsubr
          endchar
        </CharString>
        <CharString name="uni01D5">
          -35 callgsubr
          146 61 104 36 hstemhm
          75 36 42 42 -25 184 -28 42 42 36 hintmask 0000000000000000
          hintmask 1111101010000000
          170 979 -58 callsubr
          hintmask 1111110110000000
          -17 -201 5 callgsubr
          -187 rmoveto
          -424 vlineto
          -102 callgsubr
          394 vlineto
          endchar
        </CharString>
</ttFont>
